G04 DipTrace 2.1.0.5*
%INTop Silk.gbr*%
%MOIN*%
%ADD10C,0.0098*%
%ADD11C,0.0055*%
%ADD12C,0.003*%
%ADD13C,0.05*%
%ADD14C,0.025*%
%ADD15C,0.0125*%
%ADD16C,0.02*%
%ADD17C,0.1*%
%ADD18C,0.01*%
%ADD19C,0.0013*%
%ADD20C,0.15*%
%ADD21C,0.0039*%
%ADD22R,0.0591X0.0591*%
%ADD23C,0.0591*%
%ADD24R,0.0512X0.0591*%
%ADD25R,0.0591X0.0512*%
%ADD26R,0.063X0.0709*%
%ADD27C,0.0984*%
%ADD28R,0.0665X0.0665*%
%ADD29C,0.0665*%
%ADD30C,0.1874*%
%ADD31R,0.0394X0.0748*%
%ADD32R,0.0866X0.0551*%
%ADD33R,0.0354X0.0551*%
%ADD34C,0.0591*%
%ADD35C,0.0512*%
%ADD36R,0.0886X0.0197*%
%ADD37R,0.1378X0.0807*%
%ADD38R,0.1535X0.0807*%
%ADD39R,0.1181X0.0433*%
%ADD40R,0.0787X0.1181*%
%ADD41R,0.0394X0.1181*%
%ADD42R,0.165X0.0701*%
%ADD43R,0.1732X0.1358*%
%ADD44C,0.085*%
%ADD45C,0.0079*%
%ADD46R,0.063X0.063*%
%ADD47C,0.063*%
%ADD48C,0.22*%
%ADD49R,0.0374X0.0354*%
%ADD50R,0.0433X0.0394*%
%ADD51C,0.06*%
%ADD52R,0.0512X0.0512*%
%ADD53C,0.0709*%
%ADD54R,0.0748X0.0591*%
%ADD55C,0.063*%
%ADD56C,0.0669*%
%ADD57R,0.0315X0.0512*%
%ADD58R,0.0512X0.0315*%
%ADD59R,0.0512X0.0236*%
%ADD60C,0.0142*%
%ADD61R,0.0315X0.0217*%
%ADD62R,0.0138X0.0571*%
%ADD63R,0.0315X0.0354*%
%ADD64R,0.0669X0.0598*%
%ADD65C,0.0551*%
%ADD66C,0.0827*%
%ADD67C,0.1181*%
%ADD68C,0.126*%
%ADD69C,0.1772*%
%ADD70R,0.0669X0.0394*%
%ADD71C,0.04*%
%ADD72C,0.0191*%
%ADD73C,0.0354*%
%ADD74C,0.0394*%
%ADD75C,0.0429*%
%ADD76C,0.1283*%
%ADD77C,0.0469*%
%ADD78C,0.13*%
%ADD79C,0.038*%
%ADD80C,0.0315*%
%ADD81C,0.0276*%
%ADD82C,0.0906*%
%ADD83C,0.1181*%
%ADD84C,0.0479*%
%ADD85C,0.0321*%
%ADD86R,0.0748X0.0472*%
%ADD87R,0.0591X0.0315*%
%ADD88C,0.185*%
%ADD89C,0.1693*%
%ADD90C,0.1339*%
%ADD91C,0.1102*%
%ADD92C,0.0906*%
%ADD93C,0.0748*%
%ADD94C,0.0472*%
%ADD95R,0.0748X0.0677*%
%ADD96R,0.0591X0.052*%
%ADD97R,0.0394X0.0433*%
%ADD98R,0.0236X0.0276*%
%ADD99R,0.0217X0.065*%
%ADD100R,0.0059X0.0492*%
%ADD101R,0.0394X0.0295*%
%ADD102R,0.0236X0.0138*%
%ADD103R,0.0433X0.0157*%
%ADD104R,0.0591X0.0394*%
%ADD105R,0.0433X0.0236*%
%ADD106R,0.0394X0.0591*%
%ADD107R,0.0236X0.0433*%
%ADD108C,0.0748*%
%ADD109C,0.0551*%
%ADD110R,0.0827X0.0669*%
%ADD111R,0.0669X0.0512*%
%ADD112C,0.0787*%
%ADD113R,0.0433X0.0433*%
%ADD114C,0.0679*%
%ADD115C,0.0521*%
%ADD116R,0.0512X0.0472*%
%ADD117R,0.0354X0.0315*%
%ADD118R,0.0453X0.0433*%
%ADD119R,0.0295X0.0276*%
%ADD120C,0.2279*%
%ADD121C,0.2121*%
%ADD122C,0.0709*%
%ADD123R,0.0709X0.0709*%
%ADD124R,0.0551X0.0551*%
%ADD125C,0.0929*%
%ADD126C,0.0772*%
%ADD127R,0.1811X0.1437*%
%ADD128R,0.1654X0.128*%
%ADD129R,0.1728X0.078*%
%ADD130R,0.1571X0.0622*%
%ADD131R,0.0472X0.126*%
%ADD132R,0.0315X0.1102*%
%ADD133R,0.0866X0.126*%
%ADD134R,0.0709X0.1102*%
%ADD135R,0.126X0.0512*%
%ADD136R,0.1102X0.0354*%
%ADD137R,0.1614X0.0886*%
%ADD138R,0.1457X0.0728*%
%ADD139R,0.1457X0.0886*%
%ADD140R,0.1299X0.0728*%
%ADD141R,0.0965X0.0276*%
%ADD142R,0.0807X0.0118*%
%ADD143C,0.0433*%
%ADD144C,0.0669*%
%ADD145C,0.0512*%
%ADD146R,0.0433X0.063*%
%ADD147R,0.0276X0.0472*%
%ADD148R,0.0945X0.063*%
%ADD149R,0.0787X0.0472*%
%ADD150R,0.0472X0.0827*%
%ADD151R,0.0315X0.0669*%
%ADD152C,0.1953*%
%ADD153C,0.1795*%
%ADD154C,0.0744*%
%ADD155C,0.0587*%
%ADD156R,0.0744X0.0744*%
%ADD157R,0.0587X0.0587*%
%ADD158C,0.1063*%
%ADD159R,0.0709X0.0787*%
%ADD160R,0.0551X0.063*%
%ADD161R,0.0669X0.0591*%
%ADD162R,0.0512X0.0433*%
%ADD163R,0.0591X0.0669*%
%ADD164R,0.0433X0.0512*%
%ADD165R,0.0669X0.0669*%
%ADD166C,0.0093*%
%ADD167C,0.0077*%
%ADD168C,0.0154*%
%ADD169C,0.0124*%
%FSLAX44Y44*%
%SFA1B1*%
%OFA0B0*%
G04*
G70*
G90*
G75*
G01*
%LNTopSilk*%
%LPD*%
X15720Y40000D2*
D10*
G02X15720Y40000I1280J0D01*
G01*
X17750Y40750D2*
D21*
Y40250D1*
X17500Y40500D2*
X18000D1*
X19720Y40000D2*
D10*
G02X19720Y40000I1280J0D01*
G01*
X21750Y40750D2*
D21*
Y40250D1*
X21500Y40500D2*
X22000D1*
X23720Y40000D2*
D10*
G02X23720Y40000I1280J0D01*
G01*
X25750Y40750D2*
D21*
Y40250D1*
X25500Y40500D2*
X26000D1*
X28248Y16756D2*
D10*
Y16244D1*
Y17756D2*
Y17244D1*
X32748Y4256D2*
Y3744D1*
X5252Y18744D2*
Y19256D1*
X28248Y14756D2*
Y14244D1*
Y15756D2*
Y15244D1*
X17752Y6244D2*
Y6756D1*
X26248Y18756D2*
Y18244D1*
X18457Y14185D2*
Y14815D1*
X18382Y14185D2*
Y14815D1*
Y14185D2*
X18618D1*
X18382Y14815D2*
X18618D1*
X26248Y19756D2*
Y19244D1*
X12756Y32752D2*
X12244D1*
X5752Y35744D2*
Y36256D1*
X23969Y33638D2*
X20031D1*
X23969Y38362D2*
X20031D1*
X23969Y33638D2*
G03X23969Y38362I0J2362D01*
G01*
X20031Y33638D2*
G02X20031Y38362I0J2362D01*
G01*
X5957Y17685D2*
Y18315D1*
X5882Y17685D2*
Y18315D1*
Y17685D2*
X6118D1*
X5882Y18315D2*
X6118D1*
X30128Y20753D2*
X33830D1*
X35010Y24063D2*
Y11937D1*
X30128Y15247D2*
X33830D1*
X30128Y24063D2*
Y11937D1*
Y24063D2*
X35010D1*
X30128Y11937D2*
X35010D1*
X33830Y24063D2*
Y11937D1*
Y25937D2*
Y38063D1*
X35010Y25937D2*
X30128D1*
X35010Y38063D2*
X30128D1*
Y25937D2*
Y38063D1*
X33830Y29247D2*
X30128D1*
X35010Y25937D2*
Y38063D1*
X33830Y34753D2*
X30128D1*
X17398Y20106D2*
Y20894D1*
X32102Y10394D2*
Y9606D1*
X13339Y15724D2*
Y16276D1*
X27276Y38839D2*
X26724D1*
X30661Y39276D2*
Y38724D1*
X2250Y45000D2*
X1750D1*
X1500Y45500D2*
X1000D1*
X1500Y46500D2*
X1000D1*
X2750Y44750D2*
X3250D1*
X2750Y41750D2*
X3250D1*
X1750D2*
X2250D1*
X11984Y14826D2*
Y14000D1*
X11394D1*
Y5241D1*
X11984D1*
Y3804D1*
X-24D1*
Y14826D1*
X11984D1*
X11499Y15000D2*
X-24Y13724D2*
X764Y13331D1*
X6275D1*
X7457Y12937D1*
Y6637D1*
X6275Y5850D1*
X764D1*
X-24Y5456D1*
Y14394D2*
X-1992D1*
Y4886D1*
X-24D1*
X14750Y40250D2*
D45*
Y39750D1*
X12500Y39500D2*
D10*
Y40500D1*
X14500D1*
Y39500D1*
Y40000D2*
D21*
X15000D1*
X14625Y39874D2*
X14875D1*
X14687Y39750D2*
X14813D1*
G36*
X12000Y39875D2*
Y40125D1*
X12500Y40000D1*
X12000Y39875D1*
G37*
G36*
X24750Y6375D2*
Y6625D1*
X25250Y6500D1*
X24750Y6375D1*
G37*
X25500Y6000D2*
D10*
X27500D1*
Y12000D1*
X25500D1*
Y6000D1*
X27750D2*
Y12000D1*
X14750Y41250D2*
D45*
Y40750D1*
X12500Y40500D2*
D10*
Y41500D1*
X14500D1*
Y40500D1*
Y41000D2*
D21*
X15000D1*
X14625Y40874D2*
X14875D1*
X14687Y40750D2*
X14813D1*
G36*
X12000Y40875D2*
Y41125D1*
X12500Y41000D1*
X12000Y40875D1*
G37*
X14750Y42250D2*
D45*
Y41750D1*
X12500Y41500D2*
D10*
Y42500D1*
X14500D1*
Y41500D1*
Y42000D2*
D21*
X15000D1*
X14625Y41874D2*
X14875D1*
X14687Y41750D2*
X14813D1*
G36*
X12000Y41875D2*
Y42125D1*
X12500Y42000D1*
X12000Y41875D1*
G37*
X20074Y41894D2*
D10*
Y46106D1*
X19878Y41894D2*
Y46106D1*
X21728Y41894D2*
Y46106D1*
Y41894D2*
X19878D1*
X21728Y46106D2*
X19878D1*
X16074Y41894D2*
Y46106D1*
X15878Y41894D2*
Y46106D1*
X17728Y41894D2*
Y46106D1*
Y41894D2*
X15878D1*
X17728Y46106D2*
X15878D1*
X21749Y26028D2*
G03X22251Y26028I251J0D01*
G01*
X20955D2*
X21749D1*
X22251D2*
X23045D1*
X20955Y21972D2*
X23045D1*
X20955Y26028D2*
Y21972D1*
X23045Y26028D2*
Y21972D1*
X14463Y44282D2*
G02X14463Y44282I0J-49D01*
G01*
X14118Y45511D2*
X13537D1*
X14118Y44488D2*
X13537D1*
Y44666D1*
Y45335D2*
Y45511D1*
X29500Y39501D2*
Y36499D1*
X28500D2*
X29500D1*
X28500Y39501D2*
Y36499D1*
Y39501D2*
X29500D1*
X4172Y40654D2*
X19D1*
Y37346D1*
X4172D1*
Y40654D1*
X19Y39591D2*
X-897D1*
Y38409D1*
X19D1*
Y39591D1*
X4172Y36654D2*
X19D1*
Y33346D1*
X4172D1*
Y36654D1*
X19Y35591D2*
X-897D1*
Y34409D1*
X19D1*
Y35591D1*
X24508Y16370D2*
Y17630D1*
X25492Y16370D2*
Y17630D1*
X24705Y16803D2*
Y17197D1*
X25295Y16803D2*
Y17197D1*
X16015Y33561D2*
Y37442D1*
X13985Y33561D2*
Y37442D1*
X16015D2*
X13985D1*
X16015Y33561D2*
X15443D1*
X14557D2*
X13985D1*
X15440Y33558D2*
G03X14560Y33558I-440J-55D01*
G01*
X24630Y45555D2*
X23370D1*
X24630Y42445D2*
X23370D1*
X24625Y45563D2*
Y45437D1*
X23376Y45563D2*
Y45437D1*
X24625Y42438D2*
Y42563D1*
X23376Y42438D2*
Y42563D1*
X30500Y25500D2*
Y24500D1*
X32500Y25500D2*
X30500D1*
X32500D2*
Y24500D1*
X30500D1*
X11370Y17445D2*
X12630D1*
X11370Y20555D2*
X12630D1*
X11375Y17437D2*
Y17563D1*
X12624Y17437D2*
Y17563D1*
X11375Y20562D2*
Y20437D1*
X12624Y20562D2*
Y20437D1*
X22251Y5874D2*
G03X21749Y5874I-251J5D01*
G01*
X20955D2*
Y20126D1*
X23045Y5874D2*
Y20126D1*
X20955D1*
X21749Y5874D2*
X20955D1*
X23045D2*
X22251D1*
X28437Y28419D2*
X28563D1*
X29187D2*
X29250D1*
X27813D2*
X27750D1*
X29250D2*
Y27606D1*
X28812D1*
X28188D2*
X27750D1*
Y28356D1*
Y28419D1*
X9749Y46626D2*
G03X10251Y46626I251J-5D01*
G01*
X11045D2*
Y32374D1*
X8955Y46626D2*
Y32374D1*
X11045D1*
X10251Y46626D2*
X11045D1*
X8955D2*
X9749D1*
X32870Y39940D2*
X31230D1*
X32860Y41070D2*
X31220D1*
X32860Y41060D2*
Y40890D1*
Y39940D2*
Y40120D1*
X31230Y39940D2*
Y40110D1*
X31210Y41060D2*
Y40920D1*
X31660Y41060D2*
Y39970D1*
X28370Y23445D2*
X29630D1*
X28370Y26555D2*
X29630D1*
X28375Y23437D2*
Y23563D1*
X29624Y23437D2*
Y23563D1*
X28375Y26562D2*
Y26437D1*
X29624Y26562D2*
Y26437D1*
X26338Y42339D2*
X28642D1*
Y45614D1*
X26338D1*
Y42339D1*
X35000Y45969D2*
X29882D1*
Y42031D1*
X35000D1*
Y45969D1*
X17000Y47500D2*
Y46500D1*
X21000Y47500D2*
X17000D1*
X21000Y46500D2*
X17000D1*
X21000Y47500D2*
Y46500D1*
X28055Y3370D2*
Y4630D1*
X24945Y3370D2*
Y4630D1*
X28063Y3375D2*
X27937D1*
X28063Y4624D2*
X27937D1*
X24938Y3375D2*
X25063D1*
X24938Y4624D2*
X25063D1*
X24370Y15039D2*
Y14961D1*
X25630Y15039D2*
Y14961D1*
X24921Y15492D2*
X25079D1*
X24921Y14508D2*
X25079D1*
X0Y47500D2*
D18*
X35000D1*
X0Y2500D2*
X3500D1*
X2750Y44000D2*
D19*
Y43750D1*
X2250Y43250D1*
X2750Y42750D1*
X2250Y42250D1*
Y42000D1*
X2750Y47000D2*
Y46750D1*
X2250Y46250D1*
X2750Y45750D1*
X2250Y45250D1*
Y45000D1*
G36*
X26000Y3000D2*
X31000D1*
Y1500D1*
X26000D1*
Y3000D1*
G37*
X31500Y2500D2*
D18*
X35000D1*
D20*
X30250Y750D3*
G36*
X23000Y1500D2*
X26000D1*
Y0D1*
X23000D1*
Y1500D1*
G37*
X17801Y40194D2*
D166*
X17772Y40251D1*
D2*
X17714Y40309D1*
D2*
X17657Y40338D1*
D2*
X17543D1*
D2*
X17485Y40309D1*
D2*
X17428Y40251D1*
D2*
X17399Y40194D1*
D2*
X17370Y40108D1*
D2*
Y39964D1*
D2*
X17399Y39879D1*
D2*
X17428Y39821D1*
D2*
X17485Y39764D1*
D2*
X17543Y39735D1*
D2*
X17657D1*
D2*
X17714Y39764D1*
D2*
X17772Y39821D1*
D2*
X17801Y39879D1*
X17986Y40222D2*
X18044Y40251D1*
D2*
X18130Y40337D1*
D2*
Y39735D1*
X21672Y40194D2*
X21643Y40251D1*
D2*
X21585Y40309D1*
D2*
X21528Y40338D1*
D2*
X21414D1*
D2*
X21356Y40309D1*
D2*
X21299Y40251D1*
D2*
X21270Y40194D1*
D2*
X21241Y40108D1*
D2*
Y39964D1*
D2*
X21270Y39879D1*
D2*
X21299Y39821D1*
D2*
X21356Y39764D1*
D2*
X21414Y39735D1*
D2*
X21528D1*
D2*
X21585Y39764D1*
D2*
X21643Y39821D1*
D2*
X21672Y39879D1*
X21886Y40194D2*
Y40222D1*
D2*
X21915Y40280D1*
D2*
X21943Y40308D1*
D2*
X22001Y40337D1*
D2*
X22116D1*
D2*
X22173Y40308D1*
D2*
X22201Y40280D1*
D2*
X22230Y40222D1*
D2*
Y40165D1*
D2*
X22201Y40107D1*
D2*
X22144Y40022D1*
D2*
X21857Y39735D1*
D2*
X22259D1*
X25672Y40194D2*
X25643Y40251D1*
D2*
X25585Y40309D1*
D2*
X25528Y40338D1*
D2*
X25414D1*
D2*
X25356Y40309D1*
D2*
X25299Y40251D1*
D2*
X25270Y40194D1*
D2*
X25241Y40108D1*
D2*
Y39964D1*
D2*
X25270Y39879D1*
D2*
X25299Y39821D1*
D2*
X25356Y39764D1*
D2*
X25414Y39735D1*
D2*
X25528D1*
D2*
X25585Y39764D1*
D2*
X25643Y39821D1*
D2*
X25672Y39879D1*
X25915Y40337D2*
X26230D1*
D2*
X26058Y40107D1*
D2*
X26144D1*
D2*
X26201Y40079D1*
D2*
X26230Y40050D1*
D2*
X26259Y39964D1*
D2*
Y39907D1*
D2*
X26230Y39821D1*
D2*
X26173Y39763D1*
D2*
X26086Y39735D1*
D2*
X26000D1*
D2*
X25915Y39763D1*
D2*
X25886Y39792D1*
D2*
X25857Y39849D1*
X28966Y16694D2*
X28938Y16751D1*
D2*
X28880Y16809D1*
D2*
X28823Y16838D1*
D2*
X28708D1*
D2*
X28651Y16809D1*
D2*
X28594Y16751D1*
D2*
X28564Y16694D1*
D2*
X28536Y16608D1*
D2*
Y16464D1*
D2*
X28564Y16379D1*
D2*
X28594Y16321D1*
D2*
X28651Y16264D1*
D2*
X28708Y16235D1*
D2*
X28823D1*
D2*
X28880Y16264D1*
D2*
X28938Y16321D1*
D2*
X28966Y16379D1*
X29439Y16235D2*
Y16837D1*
D2*
X29152Y16436D1*
D2*
X29582D1*
X28981Y17694D2*
X28952Y17751D1*
D2*
X28894Y17809D1*
D2*
X28837Y17838D1*
D2*
X28723D1*
D2*
X28665Y17809D1*
D2*
X28608Y17751D1*
D2*
X28579Y17694D1*
D2*
X28550Y17608D1*
D2*
Y17464D1*
D2*
X28579Y17379D1*
D2*
X28608Y17321D1*
D2*
X28665Y17264D1*
D2*
X28723Y17235D1*
D2*
X28837D1*
D2*
X28894Y17264D1*
D2*
X28952Y17321D1*
D2*
X28981Y17379D1*
X29510Y17837D2*
X29224D1*
D2*
X29195Y17579D1*
D2*
X29224Y17607D1*
D2*
X29310Y17637D1*
D2*
X29395D1*
D2*
X29482Y17607D1*
D2*
X29539Y17550D1*
D2*
X29568Y17464D1*
D2*
Y17407D1*
D2*
X29539Y17321D1*
D2*
X29482Y17263D1*
D2*
X29395Y17235D1*
D2*
X29310D1*
D2*
X29224Y17263D1*
D2*
X29195Y17292D1*
D2*
X29166Y17349D1*
X33495Y4194D2*
X33467Y4251D1*
D2*
X33409Y4309D1*
D2*
X33352Y4338D1*
D2*
X33237D1*
D2*
X33180Y4309D1*
D2*
X33123Y4251D1*
D2*
X33093Y4194D1*
D2*
X33065Y4108D1*
D2*
Y3964D1*
D2*
X33093Y3879D1*
D2*
X33123Y3821D1*
D2*
X33180Y3764D1*
D2*
X33237Y3735D1*
D2*
X33352D1*
D2*
X33409Y3764D1*
D2*
X33467Y3821D1*
D2*
X33495Y3879D1*
X34025Y4251D2*
X33996Y4308D1*
D2*
X33910Y4337D1*
D2*
X33853D1*
D2*
X33767Y4308D1*
D2*
X33709Y4222D1*
D2*
X33681Y4079D1*
D2*
Y3936D1*
D2*
X33709Y3821D1*
D2*
X33767Y3763D1*
D2*
X33853Y3735D1*
D2*
X33882D1*
D2*
X33967Y3763D1*
D2*
X34025Y3821D1*
D2*
X34053Y3907D1*
D2*
Y3936D1*
D2*
X34025Y4022D1*
D2*
X33967Y4079D1*
D2*
X33882Y4107D1*
D2*
X33853D1*
D2*
X33767Y4079D1*
D2*
X33709Y4022D1*
D2*
X33681Y3936D1*
X4363Y19194D2*
X4334Y19251D1*
D2*
X4276Y19309D1*
D2*
X4219Y19338D1*
D2*
X4105D1*
D2*
X4047Y19309D1*
D2*
X3990Y19251D1*
D2*
X3961Y19194D1*
D2*
X3932Y19108D1*
D2*
Y18964D1*
D2*
X3961Y18879D1*
D2*
X3990Y18821D1*
D2*
X4047Y18764D1*
D2*
X4105Y18735D1*
D2*
X4219D1*
D2*
X4276Y18764D1*
D2*
X4334Y18821D1*
D2*
X4363Y18879D1*
X4663Y18735D2*
X4950Y19337D1*
D2*
X4548D1*
X28995Y14694D2*
X28966Y14751D1*
D2*
X28909Y14809D1*
D2*
X28852Y14838D1*
D2*
X28737D1*
D2*
X28679Y14809D1*
D2*
X28622Y14751D1*
D2*
X28593Y14694D1*
D2*
X28564Y14608D1*
D2*
Y14464D1*
D2*
X28593Y14379D1*
D2*
X28622Y14321D1*
D2*
X28679Y14264D1*
D2*
X28737Y14235D1*
D2*
X28852D1*
D2*
X28909Y14264D1*
D2*
X28966Y14321D1*
D2*
X28995Y14379D1*
X29554Y14637D2*
X29524Y14550D1*
D2*
X29467Y14493D1*
D2*
X29381Y14464D1*
D2*
X29353D1*
D2*
X29266Y14493D1*
D2*
X29209Y14550D1*
D2*
X29180Y14637D1*
D2*
Y14665D1*
D2*
X29209Y14751D1*
D2*
X29266Y14808D1*
D2*
X29353Y14837D1*
D2*
X29381D1*
D2*
X29467Y14808D1*
D2*
X29524Y14751D1*
D2*
X29554Y14637D1*
D2*
Y14493D1*
D2*
X29524Y14349D1*
D2*
X29467Y14263D1*
D2*
X29381Y14235D1*
D2*
X29324D1*
D2*
X29238Y14263D1*
D2*
X29209Y14321D1*
X28816Y15694D2*
X28788Y15751D1*
D2*
X28730Y15809D1*
D2*
X28673Y15838D1*
D2*
X28558D1*
D2*
X28500Y15809D1*
D2*
X28443Y15751D1*
D2*
X28414Y15694D1*
D2*
X28386Y15608D1*
D2*
Y15464D1*
D2*
X28414Y15379D1*
D2*
X28443Y15321D1*
D2*
X28500Y15264D1*
D2*
X28558Y15235D1*
D2*
X28673D1*
D2*
X28730Y15264D1*
D2*
X28788Y15321D1*
D2*
X28816Y15379D1*
X29001Y15722D2*
X29059Y15751D1*
D2*
X29145Y15837D1*
D2*
Y15235D1*
X29503Y15837D2*
X29417Y15808D1*
D2*
X29359Y15722D1*
D2*
X29331Y15579D1*
D2*
Y15493D1*
D2*
X29359Y15349D1*
D2*
X29417Y15263D1*
D2*
X29503Y15235D1*
D2*
X29560D1*
D2*
X29646Y15263D1*
D2*
X29703Y15349D1*
D2*
X29732Y15493D1*
D2*
Y15579D1*
D2*
X29703Y15722D1*
D2*
X29646Y15808D1*
D2*
X29560Y15837D1*
D2*
X29503D1*
X29703Y15722D2*
X29359Y15349D1*
X16698Y6694D2*
X16669Y6751D1*
D2*
X16612Y6809D1*
D2*
X16555Y6838D1*
D2*
X16440D1*
D2*
X16382Y6809D1*
D2*
X16325Y6751D1*
D2*
X16296Y6694D1*
D2*
X16268Y6608D1*
D2*
Y6464D1*
D2*
X16296Y6379D1*
D2*
X16325Y6321D1*
D2*
X16382Y6264D1*
D2*
X16440Y6235D1*
D2*
X16555D1*
D2*
X16612Y6264D1*
D2*
X16669Y6321D1*
D2*
X16698Y6379D1*
X16883Y6722D2*
X16941Y6751D1*
D2*
X17027Y6837D1*
D2*
Y6235D1*
X17242Y6694D2*
Y6722D1*
D2*
X17270Y6780D1*
D2*
X17299Y6808D1*
D2*
X17356Y6837D1*
D2*
X17471D1*
D2*
X17528Y6808D1*
D2*
X17557Y6780D1*
D2*
X17586Y6722D1*
D2*
Y6665D1*
D2*
X17557Y6607D1*
D2*
X17500Y6522D1*
D2*
X17212Y6235D1*
D2*
X17614D1*
X26816Y18694D2*
X26788Y18751D1*
D2*
X26730Y18809D1*
D2*
X26673Y18838D1*
D2*
X26558D1*
D2*
X26500Y18809D1*
D2*
X26443Y18751D1*
D2*
X26414Y18694D1*
D2*
X26386Y18608D1*
D2*
Y18464D1*
D2*
X26414Y18379D1*
D2*
X26443Y18321D1*
D2*
X26500Y18264D1*
D2*
X26558Y18235D1*
D2*
X26673D1*
D2*
X26730Y18264D1*
D2*
X26788Y18321D1*
D2*
X26816Y18379D1*
X27001Y18722D2*
X27059Y18751D1*
D2*
X27145Y18837D1*
D2*
Y18235D1*
X27388Y18837D2*
X27703D1*
D2*
X27532Y18607D1*
D2*
X27618D1*
D2*
X27675Y18579D1*
D2*
X27703Y18550D1*
D2*
X27732Y18464D1*
D2*
Y18407D1*
D2*
X27703Y18321D1*
D2*
X27646Y18263D1*
D2*
X27560Y18235D1*
D2*
X27474D1*
D2*
X27388Y18263D1*
D2*
X27360Y18292D1*
D2*
X27331Y18349D1*
X16743Y14694D2*
X16714Y14751D1*
D2*
X16657Y14809D1*
D2*
X16600Y14838D1*
D2*
X16485D1*
D2*
X16427Y14809D1*
D2*
X16370Y14751D1*
D2*
X16341Y14694D1*
D2*
X16312Y14608D1*
D2*
Y14464D1*
D2*
X16341Y14379D1*
D2*
X16370Y14321D1*
D2*
X16427Y14264D1*
D2*
X16485Y14235D1*
D2*
X16600D1*
D2*
X16657Y14264D1*
D2*
X16714Y14321D1*
D2*
X16743Y14379D1*
X16928Y14722D2*
X16986Y14751D1*
D2*
X17072Y14837D1*
D2*
Y14235D1*
X17544D2*
Y14837D1*
D2*
X17257Y14436D1*
D2*
X17688D1*
X26816Y19694D2*
X26788Y19751D1*
D2*
X26730Y19809D1*
D2*
X26673Y19838D1*
D2*
X26558D1*
D2*
X26500Y19809D1*
D2*
X26443Y19751D1*
D2*
X26414Y19694D1*
D2*
X26386Y19608D1*
D2*
Y19464D1*
D2*
X26414Y19379D1*
D2*
X26443Y19321D1*
D2*
X26500Y19264D1*
D2*
X26558Y19235D1*
D2*
X26673D1*
D2*
X26730Y19264D1*
D2*
X26788Y19321D1*
D2*
X26816Y19379D1*
X27001Y19722D2*
X27059Y19751D1*
D2*
X27145Y19837D1*
D2*
Y19235D1*
X27675Y19837D2*
X27388D1*
D2*
X27360Y19579D1*
D2*
X27388Y19607D1*
D2*
X27474Y19637D1*
D2*
X27560D1*
D2*
X27646Y19607D1*
D2*
X27704Y19550D1*
D2*
X27732Y19464D1*
D2*
Y19407D1*
D2*
X27704Y19321D1*
D2*
X27646Y19263D1*
D2*
X27560Y19235D1*
D2*
X27474D1*
D2*
X27388Y19263D1*
D2*
X27360Y19292D1*
D2*
X27331Y19349D1*
X12306Y31698D2*
X12249Y31670D1*
D2*
X12191Y31612D1*
D2*
X12162Y31555D1*
D2*
Y31440D1*
D2*
X12191Y31383D1*
D2*
X12249Y31326D1*
D2*
X12306Y31296D1*
D2*
X12392Y31268D1*
D2*
X12536D1*
D2*
X12621Y31296D1*
D2*
X12679Y31326D1*
D2*
X12736Y31383D1*
D2*
X12765Y31440D1*
D2*
Y31555D1*
D2*
X12736Y31612D1*
D2*
X12679Y31670D1*
D2*
X12621Y31698D1*
X12278Y31884D2*
X12249Y31941D1*
D2*
X12163Y32027D1*
D2*
X12765D1*
X12163Y32356D2*
X12192Y32270D1*
D2*
X12249Y32241D1*
D2*
X12306D1*
D2*
X12363Y32270D1*
D2*
X12393Y32328D1*
D2*
X12421Y32442D1*
D2*
X12450Y32528D1*
D2*
X12507Y32586D1*
D2*
X12564Y32614D1*
D2*
X12651D1*
D2*
X12708Y32586D1*
D2*
X12737Y32557D1*
D2*
X12765Y32471D1*
D2*
Y32356D1*
D2*
X12737Y32270D1*
D2*
X12708Y32241D1*
D2*
X12651Y32213D1*
D2*
X12564D1*
D2*
X12507Y32241D1*
D2*
X12450Y32299D1*
D2*
X12421Y32385D1*
D2*
X12393Y32499D1*
D2*
X12363Y32557D1*
D2*
X12306Y32586D1*
D2*
X12249D1*
D2*
X12192Y32557D1*
D2*
X12163Y32471D1*
D2*
Y32356D1*
X4569Y36194D2*
X4540Y36251D1*
D2*
X4483Y36309D1*
D2*
X4426Y36338D1*
D2*
X4311D1*
D2*
X4253Y36309D1*
D2*
X4196Y36251D1*
D2*
X4167Y36194D1*
D2*
X4139Y36108D1*
D2*
Y35964D1*
D2*
X4167Y35879D1*
D2*
X4196Y35821D1*
D2*
X4253Y35764D1*
D2*
X4311Y35735D1*
D2*
X4426D1*
D2*
X4483Y35764D1*
D2*
X4540Y35821D1*
D2*
X4569Y35879D1*
X4783Y36194D2*
Y36222D1*
D2*
X4812Y36280D1*
D2*
X4840Y36308D1*
D2*
X4898Y36337D1*
D2*
X5013D1*
D2*
X5070Y36308D1*
D2*
X5098Y36280D1*
D2*
X5128Y36222D1*
D2*
Y36165D1*
D2*
X5098Y36107D1*
D2*
X5041Y36022D1*
D2*
X4754Y35735D1*
D2*
X5156D1*
X5514Y36337D2*
X5428Y36308D1*
D2*
X5370Y36222D1*
D2*
X5341Y36079D1*
D2*
Y35993D1*
D2*
X5370Y35849D1*
D2*
X5428Y35763D1*
D2*
X5514Y35735D1*
D2*
X5571D1*
D2*
X5657Y35763D1*
D2*
X5714Y35849D1*
D2*
X5743Y35993D1*
D2*
Y36079D1*
D2*
X5714Y36222D1*
D2*
X5657Y36308D1*
D2*
X5571Y36337D1*
D2*
X5514D1*
X5714Y36222D2*
X5370Y35849D1*
X21628Y36194D2*
X21600Y36251D1*
D2*
X21542Y36309D1*
D2*
X21485Y36338D1*
D2*
X21370D1*
D2*
X21312Y36309D1*
D2*
X21255Y36251D1*
D2*
X21226Y36194D1*
D2*
X21198Y36108D1*
D2*
Y35964D1*
D2*
X21226Y35879D1*
D2*
X21255Y35821D1*
D2*
X21312Y35764D1*
D2*
X21370Y35735D1*
D2*
X21485D1*
D2*
X21542Y35764D1*
D2*
X21600Y35821D1*
D2*
X21628Y35879D1*
X21842Y36194D2*
Y36222D1*
D2*
X21871Y36280D1*
D2*
X21900Y36308D1*
D2*
X21957Y36337D1*
D2*
X22072D1*
D2*
X22129Y36308D1*
D2*
X22158Y36280D1*
D2*
X22187Y36222D1*
D2*
Y36165D1*
D2*
X22158Y36107D1*
D2*
X22100Y36022D1*
D2*
X21813Y35735D1*
D2*
X22215D1*
X22458Y36337D2*
X22773D1*
D2*
X22601Y36107D1*
D2*
X22688D1*
D2*
X22745Y36079D1*
D2*
X22773Y36050D1*
D2*
X22802Y35964D1*
D2*
Y35907D1*
D2*
X22773Y35821D1*
D2*
X22716Y35763D1*
D2*
X22630Y35735D1*
D2*
X22544D1*
D2*
X22458Y35763D1*
D2*
X22430Y35792D1*
D2*
X22400Y35849D1*
X3643Y18194D2*
X3614Y18251D1*
D2*
X3556Y18309D1*
D2*
X3499Y18338D1*
D2*
X3385D1*
D2*
X3327Y18309D1*
D2*
X3270Y18251D1*
D2*
X3241Y18194D1*
D2*
X3212Y18108D1*
D2*
Y17964D1*
D2*
X3241Y17879D1*
D2*
X3270Y17821D1*
D2*
X3327Y17764D1*
D2*
X3385Y17735D1*
D2*
X3499D1*
D2*
X3556Y17764D1*
D2*
X3614Y17821D1*
D2*
X3643Y17879D1*
X3857Y18194D2*
Y18222D1*
D2*
X3886Y18280D1*
D2*
X3914Y18308D1*
D2*
X3972Y18337D1*
D2*
X4087D1*
D2*
X4144Y18308D1*
D2*
X4172Y18280D1*
D2*
X4201Y18222D1*
D2*
Y18165D1*
D2*
X4172Y18107D1*
D2*
X4115Y18022D1*
D2*
X3828Y17735D1*
D2*
X4230D1*
X4759Y18251D2*
X4731Y18308D1*
D2*
X4645Y18337D1*
D2*
X4588D1*
D2*
X4501Y18308D1*
D2*
X4444Y18222D1*
D2*
X4415Y18079D1*
D2*
Y17936D1*
D2*
X4444Y17821D1*
D2*
X4501Y17763D1*
D2*
X4588Y17735D1*
D2*
X4616D1*
D2*
X4702Y17763D1*
D2*
X4759Y17821D1*
D2*
X4788Y17907D1*
D2*
Y17936D1*
D2*
X4759Y18022D1*
D2*
X4702Y18079D1*
D2*
X4616Y18107D1*
D2*
X4588D1*
D2*
X4501Y18079D1*
D2*
X4444Y18022D1*
D2*
X4415Y17936D1*
X34357Y17320D2*
X34300Y17291D1*
D2*
X34242Y17234D1*
D2*
X34214Y17177D1*
D2*
Y17062D1*
D2*
X34242Y17004D1*
D2*
X34300Y16947D1*
D2*
X34357Y16918D1*
D2*
X34443Y16889D1*
D2*
X34587D1*
D2*
X34673Y16918D1*
D2*
X34731Y16947D1*
D2*
X34788Y17004D1*
D2*
X34817Y17062D1*
D2*
Y17177D1*
D2*
X34788Y17234D1*
D2*
X34731Y17291D1*
D2*
X34673Y17320D1*
X34817Y17965D2*
X34214Y17735D1*
D2*
X34817Y17505D1*
X34616Y17591D2*
Y17879D1*
X34214Y18552D2*
X34817D1*
D2*
X34214Y18150D1*
D2*
X34817D1*
X34214Y19111D2*
Y18737D1*
D2*
X34817D1*
X34501D2*
Y18967D1*
X34357Y31277D2*
X34300Y31249D1*
D2*
X34242Y31191D1*
D2*
X34214Y31134D1*
D2*
Y31019D1*
D2*
X34242Y30961D1*
D2*
X34300Y30904D1*
D2*
X34357Y30875D1*
D2*
X34443Y30847D1*
D2*
X34587D1*
D2*
X34673Y30875D1*
D2*
X34731Y30904D1*
D2*
X34788Y30961D1*
D2*
X34817Y31019D1*
D2*
Y31134D1*
D2*
X34788Y31191D1*
D2*
X34731Y31249D1*
D2*
X34673Y31277D1*
X34817Y31922D2*
X34214Y31692D1*
D2*
X34817Y31462D1*
X34616Y31549D2*
Y31836D1*
X34214Y32509D2*
X34817D1*
D2*
X34214Y32107D1*
D2*
X34817D1*
Y33153D2*
X34214D1*
D2*
X34817Y32924D1*
D2*
X34214Y32694D1*
D2*
X34817D1*
X16536Y20838D2*
Y20235D1*
D2*
X16737D1*
D2*
X16823Y20264D1*
D2*
X16881Y20321D1*
D2*
X16909Y20379D1*
D2*
X16938Y20464D1*
D2*
Y20608D1*
D2*
X16909Y20694D1*
D2*
X16881Y20751D1*
D2*
X16823Y20809D1*
D2*
X16737Y20838D1*
D2*
X16536D1*
X17123Y20722D2*
X17181Y20751D1*
D2*
X17267Y20837D1*
D2*
Y20235D1*
X29104Y10338D2*
Y9735D1*
D2*
X29305D1*
D2*
X29391Y9764D1*
D2*
X29449Y9821D1*
D2*
X29477Y9879D1*
D2*
X29506Y9964D1*
D2*
Y10108D1*
D2*
X29477Y10194D1*
D2*
X29449Y10251D1*
D2*
X29391Y10309D1*
D2*
X29305Y10338D1*
D2*
X29104D1*
X29720Y10194D2*
Y10222D1*
D2*
X29749Y10280D1*
D2*
X29777Y10308D1*
D2*
X29835Y10337D1*
D2*
X29950D1*
D2*
X30007Y10308D1*
D2*
X30035Y10280D1*
D2*
X30064Y10222D1*
D2*
Y10165D1*
D2*
X30035Y10107D1*
D2*
X29978Y10022D1*
D2*
X29691Y9735D1*
D2*
X30093D1*
X10399Y16338D2*
Y15735D1*
D2*
X10600D1*
D2*
X10686Y15764D1*
D2*
X10744Y15821D1*
D2*
X10773Y15879D1*
D2*
X10801Y15964D1*
D2*
Y16108D1*
D2*
X10773Y16194D1*
D2*
X10744Y16251D1*
D2*
X10686Y16309D1*
D2*
X10600Y16338D1*
D2*
X10399D1*
X11044Y16337D2*
X11359D1*
D2*
X11187Y16107D1*
D2*
X11274D1*
D2*
X11331Y16079D1*
D2*
X11359Y16050D1*
D2*
X11388Y15964D1*
D2*
Y15907D1*
D2*
X11359Y15821D1*
D2*
X11302Y15763D1*
D2*
X11216Y15735D1*
D2*
X11130D1*
D2*
X11044Y15763D1*
D2*
X11016Y15792D1*
D2*
X10986Y15849D1*
X27662Y37899D2*
X28265D1*
D2*
Y38100D1*
D2*
X28236Y38186D1*
D2*
X28179Y38244D1*
D2*
X28121Y38273D1*
D2*
X28036Y38301D1*
D2*
X27892D1*
D2*
X27806Y38273D1*
D2*
X27749Y38244D1*
D2*
X27691Y38186D1*
D2*
X27662Y38100D1*
D2*
Y37899D1*
X27663Y38831D2*
Y38544D1*
D2*
X27921Y38516D1*
D2*
X27893Y38544D1*
D2*
X27863Y38630D1*
D2*
Y38716D1*
D2*
X27893Y38802D1*
D2*
X27950Y38860D1*
D2*
X28036Y38888D1*
D2*
X28093D1*
D2*
X28179Y38860D1*
D2*
X28237Y38802D1*
D2*
X28265Y38716D1*
D2*
Y38630D1*
D2*
X28237Y38544D1*
D2*
X28208Y38516D1*
D2*
X28151Y38486D1*
X31126Y40154D2*
Y39551D1*
D2*
X31327D1*
D2*
X31414Y39581D1*
D2*
X31471Y39638D1*
D2*
X31500Y39695D1*
D2*
X31528Y39781D1*
D2*
Y39925D1*
D2*
X31500Y40011D1*
D2*
X31471Y40068D1*
D2*
X31414Y40126D1*
D2*
X31327Y40154D1*
D2*
X31126D1*
X32058Y40068D2*
X32029Y40125D1*
D2*
X31943Y40154D1*
D2*
X31886D1*
D2*
X31800Y40125D1*
D2*
X31742Y40039D1*
D2*
X31714Y39896D1*
D2*
Y39752D1*
D2*
X31742Y39638D1*
D2*
X31800Y39580D1*
D2*
X31886Y39551D1*
D2*
X31914D1*
D2*
X32000Y39580D1*
D2*
X32058Y39638D1*
D2*
X32086Y39724D1*
D2*
Y39752D1*
D2*
X32058Y39839D1*
D2*
X32000Y39896D1*
D2*
X31914Y39924D1*
D2*
X31886D1*
D2*
X31800Y39896D1*
D2*
X31742Y39839D1*
D2*
X31714Y39752D1*
X988Y44796D2*
Y44194D1*
D2*
X1189D1*
D2*
X1276Y44223D1*
D2*
X1333Y44280D1*
D2*
X1362Y44338D1*
D2*
X1390Y44423D1*
D2*
Y44567D1*
D2*
X1362Y44653D1*
D2*
X1333Y44710D1*
D2*
X1276Y44768D1*
D2*
X1189Y44796D1*
D2*
X988D1*
X1576Y44681D2*
X1633Y44710D1*
D2*
X1720Y44796D1*
D2*
Y44194D1*
X2077Y44796D2*
X1991Y44767D1*
D2*
X1933Y44681D1*
D2*
X1905Y44538D1*
D2*
Y44452D1*
D2*
X1933Y44308D1*
D2*
X1991Y44222D1*
D2*
X2077Y44194D1*
D2*
X2134D1*
D2*
X2221Y44222D1*
D2*
X2278Y44308D1*
D2*
X2307Y44452D1*
D2*
Y44538D1*
D2*
X2278Y44681D1*
D2*
X2221Y44767D1*
D2*
X2134Y44796D1*
D2*
X2077D1*
X2278Y44681D2*
X1933Y44308D1*
X3470Y45046D2*
Y44444D1*
D2*
X3671D1*
D2*
X3757Y44473D1*
D2*
X3815Y44530D1*
D2*
X3843Y44588D1*
D2*
X3872Y44673D1*
D2*
Y44817D1*
D2*
X3843Y44903D1*
D2*
X3815Y44960D1*
D2*
X3757Y45018D1*
D2*
X3671Y45046D1*
D2*
X3470D1*
X4057Y44931D2*
X4115Y44960D1*
D2*
X4201Y45046D1*
D2*
Y44444D1*
X4386Y44931D2*
X4444Y44960D1*
D2*
X4530Y45046D1*
D2*
Y44444D1*
X3341Y42046D2*
Y41444D1*
D2*
X3542D1*
D2*
X3628Y41473D1*
D2*
X3686Y41530D1*
D2*
X3714Y41588D1*
D2*
X3743Y41673D1*
D2*
Y41817D1*
D2*
X3714Y41903D1*
D2*
X3686Y41960D1*
D2*
X3628Y42018D1*
D2*
X3542Y42046D1*
D2*
X3341D1*
X3928Y41931D2*
X3986Y41960D1*
D2*
X4072Y42046D1*
D2*
Y41444D1*
X4286Y41903D2*
Y41931D1*
D2*
X4315Y41989D1*
D2*
X4343Y42017D1*
D2*
X4401Y42046D1*
D2*
X4516D1*
D2*
X4573Y42017D1*
D2*
X4601Y41989D1*
D2*
X4631Y41931D1*
D2*
Y41874D1*
D2*
X4601Y41816D1*
D2*
X4544Y41731D1*
D2*
X4257Y41444D1*
D2*
X4659D1*
X1341Y41546D2*
Y40944D1*
D2*
X1542D1*
D2*
X1628Y40973D1*
D2*
X1686Y41030D1*
D2*
X1714Y41088D1*
D2*
X1743Y41173D1*
D2*
Y41317D1*
D2*
X1714Y41403D1*
D2*
X1686Y41460D1*
D2*
X1628Y41518D1*
D2*
X1542Y41546D1*
D2*
X1341D1*
X1928Y41431D2*
X1986Y41460D1*
D2*
X2072Y41546D1*
D2*
Y40944D1*
X2315Y41546D2*
X2630D1*
D2*
X2458Y41316D1*
D2*
X2544D1*
D2*
X2601Y41288D1*
D2*
X2630Y41259D1*
D2*
X2659Y41173D1*
D2*
Y41116D1*
D2*
X2630Y41030D1*
D2*
X2573Y40972D1*
D2*
X2487Y40944D1*
D2*
X2400D1*
D2*
X2315Y40972D1*
D2*
X2286Y41001D1*
D2*
X2257Y41058D1*
X5181Y16690D2*
Y16231D1*
D2*
X5152Y16145D1*
D2*
X5123Y16116D1*
D2*
X5066Y16087D1*
D2*
X5008D1*
D2*
X4951Y16116D1*
D2*
X4923Y16145D1*
D2*
X4894Y16231D1*
D2*
Y16288D1*
X5395Y16546D2*
Y16574D1*
D2*
X5424Y16632D1*
D2*
X5452Y16661D1*
D2*
X5510Y16689D1*
D2*
X5625D1*
D2*
X5682Y16661D1*
D2*
X5710Y16632D1*
D2*
X5739Y16574D1*
D2*
Y16517D1*
D2*
X5710Y16460D1*
D2*
X5653Y16374D1*
D2*
X5366Y16087D1*
D2*
X5768D1*
X26064Y12879D2*
Y12420D1*
D2*
X26036Y12333D1*
D2*
X26007Y12305D1*
D2*
X25950Y12276D1*
D2*
X25892D1*
D2*
X25835Y12305D1*
D2*
X25806Y12333D1*
D2*
X25777Y12420D1*
D2*
Y12477D1*
X26250Y12763D2*
X26307Y12792D1*
D2*
X26394Y12878D1*
D2*
Y12276D1*
X26579Y12763D2*
X26637Y12792D1*
D2*
X26723Y12878D1*
D2*
Y12276D1*
X21932Y40763D2*
X22535D1*
D2*
Y41107D1*
Y41751D2*
X21932D1*
D2*
X22535Y41522D1*
D2*
X21932Y41292D1*
D2*
X22535D1*
X22076Y41966D2*
X22047D1*
D2*
X21990Y41994D1*
D2*
X21961Y42023D1*
D2*
X21933Y42080D1*
D2*
Y42195D1*
D2*
X21961Y42252D1*
D2*
X21990Y42281D1*
D2*
X22047Y42310D1*
D2*
X22104D1*
D2*
X22162Y42281D1*
D2*
X22248Y42224D1*
D2*
X22535Y41937D1*
D2*
Y42338D1*
X22133Y42897D2*
X22219Y42868D1*
D2*
X22277Y42811D1*
D2*
X22305Y42725D1*
D2*
Y42696D1*
D2*
X22277Y42610D1*
D2*
X22219Y42553D1*
D2*
X22133Y42524D1*
D2*
X22104D1*
D2*
X22018Y42553D1*
D2*
X21961Y42610D1*
D2*
X21933Y42696D1*
D2*
Y42725D1*
D2*
X21961Y42811D1*
D2*
X22018Y42868D1*
D2*
X22133Y42897D1*
D2*
X22277D1*
D2*
X22420Y42868D1*
D2*
X22506Y42811D1*
D2*
X22535Y42725D1*
D2*
Y42668D1*
D2*
X22506Y42581D1*
D2*
X22449Y42553D1*
X22535Y43370D2*
X21933D1*
D2*
X22334Y43082D1*
D2*
Y43513D1*
X21933Y43871D2*
X21961Y43784D1*
D2*
X22047Y43727D1*
D2*
X22191Y43698D1*
D2*
X22277D1*
D2*
X22420Y43727D1*
D2*
X22506Y43784D1*
D2*
X22535Y43871D1*
D2*
Y43928D1*
D2*
X22506Y44014D1*
D2*
X22420Y44071D1*
D2*
X22277Y44100D1*
D2*
X22191D1*
D2*
X22047Y44071D1*
D2*
X21961Y44014D1*
D2*
X21933Y43928D1*
D2*
Y43871D1*
X22047Y44071D2*
X22420Y43727D1*
X22075Y44716D2*
X22018Y44687D1*
D2*
X21960Y44630D1*
D2*
X21932Y44572D1*
D2*
Y44458D1*
D2*
X21960Y44400D1*
D2*
X22018Y44343D1*
D2*
X22075Y44314D1*
D2*
X22161Y44285D1*
D2*
X22305D1*
D2*
X22391Y44314D1*
D2*
X22449Y44343D1*
D2*
X22506Y44400D1*
D2*
X22535Y44458D1*
D2*
Y44572D1*
D2*
X22506Y44630D1*
D2*
X22449Y44687D1*
D2*
X22391Y44716D1*
X21932Y45102D2*
X22535D1*
X21932Y44901D2*
Y45303D1*
X22234Y45488D2*
Y45820D1*
X21933Y46349D2*
Y46063D1*
D2*
X22191Y46034D1*
D2*
X22162Y46063D1*
D2*
X22133Y46149D1*
D2*
Y46235D1*
D2*
X22162Y46321D1*
D2*
X22219Y46378D1*
D2*
X22305Y46407D1*
D2*
X22362D1*
D2*
X22449Y46378D1*
D2*
X22506Y46321D1*
D2*
X22535Y46235D1*
D2*
Y46149D1*
D2*
X22506Y46063D1*
D2*
X22477Y46034D1*
D2*
X22420Y46005D1*
X22477Y46621D2*
X22506Y46592D1*
D2*
X22535Y46621D1*
D2*
X22506Y46650D1*
D2*
X22477Y46621D1*
X21933Y47008D2*
X21961Y46921D1*
D2*
X22047Y46864D1*
D2*
X22191Y46835D1*
D2*
X22277D1*
D2*
X22420Y46864D1*
D2*
X22506Y46921D1*
D2*
X22535Y47008D1*
D2*
Y47065D1*
D2*
X22506Y47151D1*
D2*
X22420Y47208D1*
D2*
X22277Y47237D1*
D2*
X22191D1*
D2*
X22047Y47208D1*
D2*
X21961Y47151D1*
D2*
X21933Y47065D1*
D2*
Y47008D1*
X22047Y47208D2*
X22420Y46864D1*
X17932Y41236D2*
X18535D1*
D2*
Y41581D1*
Y42225D2*
X17932D1*
D2*
X18535Y41995D1*
D2*
X17932Y41766D1*
D2*
X18535D1*
X17933Y42468D2*
Y42783D1*
D2*
X18162Y42611D1*
D2*
Y42697D1*
D2*
X18191Y42754D1*
D2*
X18219Y42783D1*
D2*
X18305Y42812D1*
D2*
X18362D1*
D2*
X18449Y42783D1*
D2*
X18506Y42726D1*
D2*
X18535Y42640D1*
D2*
Y42553D1*
D2*
X18506Y42468D1*
D2*
X18477Y42439D1*
D2*
X18420Y42410D1*
X18133Y43371D2*
X18219Y43342D1*
D2*
X18277Y43285D1*
D2*
X18305Y43198D1*
D2*
Y43170D1*
D2*
X18277Y43084D1*
D2*
X18219Y43027D1*
D2*
X18133Y42997D1*
D2*
X18104D1*
D2*
X18018Y43027D1*
D2*
X17961Y43084D1*
D2*
X17933Y43170D1*
D2*
Y43198D1*
D2*
X17961Y43285D1*
D2*
X18018Y43342D1*
D2*
X18133Y43371D1*
D2*
X18277D1*
D2*
X18420Y43342D1*
D2*
X18506Y43285D1*
D2*
X18535Y43198D1*
D2*
Y43141D1*
D2*
X18506Y43055D1*
D2*
X18449Y43027D1*
X18535Y43843D2*
X17933D1*
D2*
X18334Y43556D1*
D2*
Y43987D1*
X17933Y44344D2*
X17961Y44258D1*
D2*
X18047Y44200D1*
D2*
X18191Y44172D1*
D2*
X18277D1*
D2*
X18420Y44200D1*
D2*
X18506Y44258D1*
D2*
X18535Y44344D1*
D2*
Y44401D1*
D2*
X18506Y44487D1*
D2*
X18420Y44545D1*
D2*
X18277Y44574D1*
D2*
X18191D1*
D2*
X18047Y44545D1*
D2*
X17961Y44487D1*
D2*
X17933Y44401D1*
D2*
Y44344D1*
X18047Y44545D2*
X18420Y44200D1*
X17932Y44759D2*
X18535D1*
X17932Y45145D2*
X18535D1*
X17932Y44944D2*
Y45346D1*
X17933Y45589D2*
Y45904D1*
D2*
X18162Y45732D1*
D2*
Y45819D1*
D2*
X18191Y45876D1*
D2*
X18219Y45904D1*
D2*
X18305Y45933D1*
D2*
X18362D1*
D2*
X18449Y45904D1*
D2*
X18506Y45847D1*
D2*
X18535Y45761D1*
D2*
Y45675D1*
D2*
X18506Y45589D1*
D2*
X18477Y45561D1*
D2*
X18420Y45531D1*
X18477Y46147D2*
X18506Y46119D1*
D2*
X18535Y46147D1*
D2*
X18506Y46176D1*
D2*
X18477Y46147D1*
X17933Y46419D2*
Y46734D1*
D2*
X18162Y46563D1*
D2*
Y46649D1*
D2*
X18191Y46706D1*
D2*
X18219Y46734D1*
D2*
X18305Y46764D1*
D2*
X18362D1*
D2*
X18449Y46734D1*
D2*
X18506Y46677D1*
D2*
X18535Y46591D1*
D2*
Y46505D1*
D2*
X18506Y46419D1*
D2*
X18477Y46391D1*
D2*
X18420Y46362D1*
X22265Y22583D2*
X21662D1*
D2*
X22265Y22353D1*
D2*
X21662Y22124D1*
D2*
X22265D1*
X21806Y23198D2*
X21749Y23170D1*
D2*
X21691Y23112D1*
D2*
X21662Y23055D1*
D2*
Y22940D1*
D2*
X21691Y22883D1*
D2*
X21749Y22826D1*
D2*
X21806Y22796D1*
D2*
X21892Y22768D1*
D2*
X22036D1*
D2*
X22121Y22796D1*
D2*
X22179Y22826D1*
D2*
X22236Y22883D1*
D2*
X22265Y22940D1*
D2*
Y23055D1*
D2*
X22236Y23112D1*
D2*
X22179Y23170D1*
D2*
X22121Y23198D1*
X21978Y23384D2*
Y23642D1*
D2*
X21950Y23728D1*
D2*
X21920Y23757D1*
D2*
X21863Y23786D1*
D2*
X21777D1*
D2*
X21720Y23757D1*
D2*
X21691Y23728D1*
D2*
X21662Y23642D1*
D2*
Y23384D1*
D2*
X22265D1*
X21806Y24000D2*
X21778D1*
D2*
X21720Y24029D1*
D2*
X21692Y24057D1*
D2*
X21663Y24115D1*
D2*
Y24229D1*
D2*
X21692Y24287D1*
D2*
X21720Y24315D1*
D2*
X21778Y24344D1*
D2*
X21835D1*
D2*
X21893Y24315D1*
D2*
X21978Y24258D1*
D2*
X22265Y23971D1*
D2*
Y24373D1*
X21663Y24902D2*
Y24616D1*
D2*
X21921Y24587D1*
D2*
X21893Y24616D1*
D2*
X21863Y24702D1*
D2*
Y24787D1*
D2*
X21893Y24874D1*
D2*
X21950Y24931D1*
D2*
X22036Y24960D1*
D2*
X22093D1*
D2*
X22179Y24931D1*
D2*
X22237Y24874D1*
D2*
X22265Y24787D1*
D2*
Y24702D1*
D2*
X22237Y24616D1*
D2*
X22208Y24587D1*
D2*
X22151Y24558D1*
X21663Y25489D2*
Y25203D1*
D2*
X21921Y25174D1*
D2*
X21893Y25203D1*
D2*
X21863Y25289D1*
D2*
Y25375D1*
D2*
X21893Y25461D1*
D2*
X21950Y25519D1*
D2*
X22036Y25547D1*
D2*
X22093D1*
D2*
X22179Y25519D1*
D2*
X22237Y25461D1*
D2*
X22265Y25375D1*
D2*
Y25289D1*
D2*
X22237Y25203D1*
D2*
X22208Y25174D1*
D2*
X22151Y25145D1*
X21778Y25732D2*
X21749Y25790D1*
D2*
X21663Y25876D1*
D2*
X22265D1*
X14853Y44645D2*
X14881Y44588D1*
D2*
X14939Y44530D1*
D2*
X14996Y44502D1*
D2*
X15083Y44473D1*
D2*
X15226D1*
D2*
X15312Y44502D1*
D2*
X15369Y44530D1*
D2*
X15427Y44588D1*
D2*
X15455Y44645D1*
D2*
Y44760D1*
D2*
X15427Y44818D1*
D2*
X15369Y44875D1*
D2*
X15312Y44903D1*
D2*
X15226Y44932D1*
D2*
X15083D1*
D2*
X14996Y44903D1*
D2*
X14939Y44875D1*
D2*
X14881Y44818D1*
D2*
X14853Y44760D1*
D2*
Y44645D1*
X15341Y44731D2*
X15513Y44903D1*
X14969Y45118D2*
X14939Y45175D1*
D2*
X14854Y45261D1*
D2*
X15456D1*
X16634Y22550D2*
X16892D1*
D2*
X16979Y22580D1*
D2*
X17008Y22608D1*
D2*
X17036Y22665D1*
D2*
Y22723D1*
D2*
X17008Y22780D1*
D2*
X16979Y22809D1*
D2*
X16892Y22838D1*
D2*
X16634D1*
D2*
Y22235D1*
X16835Y22550D2*
X17036Y22235D1*
X17222Y22722D2*
X17279Y22751D1*
D2*
X17366Y22837D1*
D2*
Y22235D1*
X16505Y21550D2*
X16763D1*
D2*
X16850Y21580D1*
D2*
X16879Y21608D1*
D2*
X16907Y21665D1*
D2*
Y21723D1*
D2*
X16879Y21780D1*
D2*
X16850Y21809D1*
D2*
X16763Y21838D1*
D2*
X16505D1*
D2*
Y21235D1*
X16706Y21550D2*
X16907Y21235D1*
X17122Y21694D2*
Y21722D1*
D2*
X17150Y21780D1*
D2*
X17179Y21808D1*
D2*
X17237Y21837D1*
D2*
X17351D1*
D2*
X17408Y21808D1*
D2*
X17437Y21780D1*
D2*
X17466Y21722D1*
D2*
Y21665D1*
D2*
X17437Y21607D1*
D2*
X17380Y21522D1*
D2*
X17093Y21235D1*
D2*
X17495D1*
X18005Y17387D2*
X18263D1*
D2*
X18350Y17416D1*
D2*
X18379Y17444D1*
D2*
X18407Y17502D1*
D2*
Y17559D1*
D2*
X18379Y17616D1*
D2*
X18350Y17645D1*
D2*
X18263Y17674D1*
D2*
X18005D1*
D2*
Y17071D1*
X18206Y17387D2*
X18407Y17071D1*
X18650Y17673D2*
X18965D1*
D2*
X18794Y17444D1*
D2*
X18880D1*
D2*
X18937Y17415D1*
D2*
X18965Y17387D1*
D2*
X18995Y17301D1*
D2*
Y17244D1*
D2*
X18965Y17157D1*
D2*
X18908Y17100D1*
D2*
X18822Y17071D1*
D2*
X18736D1*
D2*
X18650Y17100D1*
D2*
X18622Y17129D1*
D2*
X18593Y17186D1*
X29786Y20491D2*
Y20749D1*
D2*
X29757Y20835D1*
D2*
X29728Y20865D1*
D2*
X29671Y20893D1*
D2*
X29614D1*
D2*
X29556Y20865D1*
D2*
X29527Y20835D1*
D2*
X29499Y20749D1*
D2*
Y20491D1*
D2*
X30102D1*
X29786Y20692D2*
X30102Y20893D1*
Y21366D2*
X29499D1*
D2*
X29901Y21078D1*
D2*
Y21509D1*
X6520Y47300D2*
X6778D1*
D2*
X6864Y47330D1*
D2*
X6893Y47358D1*
D2*
X6922Y47415D1*
D2*
Y47473D1*
D2*
X6893Y47530D1*
D2*
X6864Y47559D1*
D2*
X6778Y47588D1*
D2*
X6520D1*
D2*
Y46985D1*
X6721Y47300D2*
X6922Y46985D1*
X7451Y47501D2*
X7423Y47558D1*
D2*
X7337Y47587D1*
D2*
X7280D1*
D2*
X7193Y47558D1*
D2*
X7136Y47472D1*
D2*
X7107Y47329D1*
D2*
Y47186D1*
D2*
X7136Y47071D1*
D2*
X7193Y47013D1*
D2*
X7280Y46985D1*
D2*
X7308D1*
D2*
X7394Y47013D1*
D2*
X7451Y47071D1*
D2*
X7480Y47157D1*
D2*
Y47186D1*
D2*
X7451Y47272D1*
D2*
X7394Y47329D1*
D2*
X7308Y47357D1*
D2*
X7280D1*
D2*
X7193Y47329D1*
D2*
X7136Y47272D1*
D2*
X7107Y47186D1*
X28950Y37520D2*
Y37778D1*
D2*
X28920Y37864D1*
D2*
X28892Y37893D1*
D2*
X28835Y37922D1*
D2*
X28777D1*
D2*
X28720Y37893D1*
D2*
X28691Y37864D1*
D2*
X28662Y37778D1*
D2*
Y37520D1*
D2*
X29265D1*
X28950Y37721D2*
X29265Y37922D1*
X28863Y38480D2*
X28950Y38451D1*
D2*
X29007Y38394D1*
D2*
X29036Y38308D1*
D2*
Y38279D1*
D2*
X29007Y38193D1*
D2*
X28950Y38136D1*
D2*
X28863Y38107D1*
D2*
X28835D1*
D2*
X28749Y38136D1*
D2*
X28692Y38193D1*
D2*
X28663Y38279D1*
D2*
Y38308D1*
D2*
X28692Y38394D1*
D2*
X28749Y38451D1*
D2*
X28863Y38480D1*
D2*
X29007D1*
D2*
X29151Y38451D1*
D2*
X29237Y38394D1*
D2*
X29265Y38308D1*
D2*
Y38251D1*
D2*
X29237Y38165D1*
D2*
X29179Y38136D1*
X6341Y43300D2*
X6599D1*
D2*
X6685Y43330D1*
D2*
X6714Y43358D1*
D2*
X6743Y43415D1*
D2*
Y43473D1*
D2*
X6714Y43530D1*
D2*
X6685Y43559D1*
D2*
X6599Y43588D1*
D2*
X6341D1*
D2*
Y42985D1*
X6542Y43300D2*
X6743Y42985D1*
X6928Y43472D2*
X6986Y43501D1*
D2*
X7072Y43587D1*
D2*
Y42985D1*
X7430Y43587D2*
X7343Y43558D1*
D2*
X7286Y43472D1*
D2*
X7257Y43329D1*
D2*
Y43243D1*
D2*
X7286Y43099D1*
D2*
X7343Y43013D1*
D2*
X7430Y42985D1*
D2*
X7487D1*
D2*
X7573Y43013D1*
D2*
X7630Y43099D1*
D2*
X7659Y43243D1*
D2*
Y43329D1*
D2*
X7630Y43472D1*
D2*
X7573Y43558D1*
D2*
X7487Y43587D1*
D2*
X7430D1*
X7630Y43472D2*
X7286Y43099D1*
X6470Y45800D2*
X6728D1*
D2*
X6814Y45830D1*
D2*
X6843Y45858D1*
D2*
X6872Y45915D1*
D2*
Y45973D1*
D2*
X6843Y46030D1*
D2*
X6814Y46059D1*
D2*
X6728Y46088D1*
D2*
X6470D1*
D2*
Y45485D1*
X6671Y45800D2*
X6872Y45485D1*
X7057Y45972D2*
X7115Y46001D1*
D2*
X7201Y46087D1*
D2*
Y45485D1*
X7386Y45972D2*
X7444Y46001D1*
D2*
X7530Y46087D1*
D2*
Y45485D1*
X30841Y7550D2*
X31099D1*
D2*
X31185Y7580D1*
D2*
X31214Y7608D1*
D2*
X31243Y7665D1*
D2*
Y7723D1*
D2*
X31214Y7780D1*
D2*
X31185Y7809D1*
D2*
X31099Y7838D1*
D2*
X30841D1*
D2*
Y7235D1*
X31042Y7550D2*
X31243Y7235D1*
X31428Y7722D2*
X31486Y7751D1*
D2*
X31572Y7837D1*
D2*
Y7235D1*
X31786Y7694D2*
Y7722D1*
D2*
X31815Y7780D1*
D2*
X31843Y7808D1*
D2*
X31901Y7837D1*
D2*
X32016D1*
D2*
X32073Y7808D1*
D2*
X32101Y7780D1*
D2*
X32131Y7722D1*
D2*
Y7665D1*
D2*
X32101Y7607D1*
D2*
X32044Y7522D1*
D2*
X31757Y7235D1*
D2*
X32159D1*
X17841Y18387D2*
X18099D1*
D2*
X18185Y18416D1*
D2*
X18214Y18444D1*
D2*
X18243Y18502D1*
D2*
Y18559D1*
D2*
X18214Y18616D1*
D2*
X18185Y18645D1*
D2*
X18099Y18674D1*
D2*
X17841D1*
D2*
Y18071D1*
X18042Y18387D2*
X18243Y18071D1*
X18428Y18559D2*
X18486Y18588D1*
D2*
X18572Y18673D1*
D2*
Y18071D1*
X18815Y18673D2*
X19130D1*
D2*
X18958Y18444D1*
D2*
X19044D1*
D2*
X19101Y18415D1*
D2*
X19130Y18387D1*
D2*
X19159Y18301D1*
D2*
Y18244D1*
D2*
X19130Y18157D1*
D2*
X19073Y18100D1*
D2*
X18987Y18071D1*
D2*
X18900D1*
D2*
X18815Y18100D1*
D2*
X18786Y18129D1*
D2*
X18757Y18186D1*
X33827Y11050D2*
X34085D1*
D2*
X34171Y11080D1*
D2*
X34200Y11108D1*
D2*
X34229Y11165D1*
D2*
Y11223D1*
D2*
X34200Y11280D1*
D2*
X34171Y11309D1*
D2*
X34085Y11338D1*
D2*
X33827D1*
D2*
Y10735D1*
X34028Y11050D2*
X34229Y10735D1*
X34414Y11222D2*
X34471Y11251D1*
D2*
X34558Y11337D1*
D2*
Y10735D1*
X35030D2*
Y11337D1*
D2*
X34743Y10936D1*
D2*
X35173D1*
X28841Y11050D2*
X29099D1*
D2*
X29185Y11080D1*
D2*
X29214Y11108D1*
D2*
X29243Y11165D1*
D2*
Y11223D1*
D2*
X29214Y11280D1*
D2*
X29185Y11309D1*
D2*
X29099Y11338D1*
D2*
X28841D1*
D2*
Y10735D1*
X29042Y11050D2*
X29243Y10735D1*
X29428Y11222D2*
X29486Y11251D1*
D2*
X29572Y11337D1*
D2*
Y10735D1*
X30101Y11337D2*
X29815D1*
D2*
X29786Y11079D1*
D2*
X29815Y11107D1*
D2*
X29901Y11137D1*
D2*
X29987D1*
D2*
X30073Y11107D1*
D2*
X30131Y11050D1*
D2*
X30159Y10964D1*
D2*
Y10907D1*
D2*
X30131Y10821D1*
D2*
X30073Y10763D1*
D2*
X29987Y10735D1*
D2*
X29901D1*
D2*
X29815Y10763D1*
D2*
X29786Y10792D1*
D2*
X29757Y10849D1*
X6355Y43800D2*
X6613D1*
D2*
X6700Y43830D1*
D2*
X6729Y43858D1*
D2*
X6757Y43915D1*
D2*
Y43973D1*
D2*
X6729Y44030D1*
D2*
X6700Y44059D1*
D2*
X6613Y44088D1*
D2*
X6355D1*
D2*
Y43485D1*
X6556Y43800D2*
X6757Y43485D1*
X6943Y43972D2*
X7000Y44001D1*
D2*
X7087Y44087D1*
D2*
Y43485D1*
X7616Y44001D2*
X7588Y44058D1*
D2*
X7501Y44087D1*
D2*
X7444D1*
D2*
X7358Y44058D1*
D2*
X7300Y43972D1*
D2*
X7272Y43829D1*
D2*
Y43686D1*
D2*
X7300Y43571D1*
D2*
X7358Y43513D1*
D2*
X7444Y43485D1*
D2*
X7473D1*
D2*
X7558Y43513D1*
D2*
X7616Y43571D1*
D2*
X7645Y43657D1*
D2*
Y43686D1*
D2*
X7616Y43772D1*
D2*
X7558Y43829D1*
D2*
X7473Y43857D1*
D2*
X7444D1*
D2*
X7358Y43829D1*
D2*
X7300Y43772D1*
D2*
X7272Y43686D1*
X6341Y44300D2*
X6599D1*
D2*
X6685Y44330D1*
D2*
X6714Y44358D1*
D2*
X6743Y44415D1*
D2*
Y44473D1*
D2*
X6714Y44530D1*
D2*
X6685Y44559D1*
D2*
X6599Y44588D1*
D2*
X6341D1*
D2*
Y43985D1*
X6542Y44300D2*
X6743Y43985D1*
X6928Y44472D2*
X6986Y44501D1*
D2*
X7072Y44587D1*
D2*
Y43985D1*
X7372D2*
X7659Y44587D1*
D2*
X7257D1*
X6341Y42800D2*
X6599D1*
D2*
X6685Y42830D1*
D2*
X6715Y42858D1*
D2*
X6743Y42915D1*
D2*
Y42973D1*
D2*
X6715Y43030D1*
D2*
X6685Y43059D1*
D2*
X6599Y43088D1*
D2*
X6341D1*
D2*
Y42485D1*
X6542Y42800D2*
X6743Y42485D1*
X6928Y42972D2*
X6986Y43001D1*
D2*
X7072Y43087D1*
D2*
Y42485D1*
X7401Y43087D2*
X7315Y43058D1*
D2*
X7286Y43001D1*
D2*
Y42944D1*
D2*
X7315Y42887D1*
D2*
X7372Y42857D1*
D2*
X7487Y42829D1*
D2*
X7573Y42800D1*
D2*
X7630Y42743D1*
D2*
X7659Y42686D1*
D2*
Y42599D1*
D2*
X7630Y42542D1*
D2*
X7602Y42513D1*
D2*
X7516Y42485D1*
D2*
X7401D1*
D2*
X7315Y42513D1*
D2*
X7286Y42542D1*
D2*
X7258Y42599D1*
D2*
Y42686D1*
D2*
X7286Y42743D1*
D2*
X7344Y42800D1*
D2*
X7429Y42829D1*
D2*
X7544Y42857D1*
D2*
X7602Y42887D1*
D2*
X7630Y42944D1*
D2*
Y43001D1*
D2*
X7602Y43058D1*
D2*
X7516Y43087D1*
D2*
X7401D1*
X6355Y46300D2*
X6613D1*
D2*
X6699Y46330D1*
D2*
X6729Y46358D1*
D2*
X6757Y46415D1*
D2*
Y46473D1*
D2*
X6729Y46530D1*
D2*
X6699Y46559D1*
D2*
X6613Y46588D1*
D2*
X6355D1*
D2*
Y45985D1*
X6556Y46300D2*
X6757Y45985D1*
X6942Y46472D2*
X7000Y46501D1*
D2*
X7086Y46587D1*
D2*
Y45985D1*
X7645Y46387D2*
X7616Y46300D1*
D2*
X7559Y46243D1*
D2*
X7472Y46214D1*
D2*
X7444D1*
D2*
X7358Y46243D1*
D2*
X7301Y46300D1*
D2*
X7271Y46387D1*
D2*
Y46415D1*
D2*
X7301Y46501D1*
D2*
X7358Y46558D1*
D2*
X7444Y46587D1*
D2*
X7472D1*
D2*
X7559Y46558D1*
D2*
X7616Y46501D1*
D2*
X7645Y46387D1*
D2*
Y46243D1*
D2*
X7616Y46099D1*
D2*
X7559Y46013D1*
D2*
X7472Y45985D1*
D2*
X7415D1*
D2*
X7329Y46013D1*
D2*
X7301Y46071D1*
X6212Y46800D2*
X6470D1*
D2*
X6556Y46830D1*
D2*
X6585Y46858D1*
D2*
X6614Y46915D1*
D2*
Y46973D1*
D2*
X6585Y47030D1*
D2*
X6556Y47059D1*
D2*
X6470Y47088D1*
D2*
X6212D1*
D2*
Y46485D1*
X6413Y46800D2*
X6614Y46485D1*
X6828Y46944D2*
Y46972D1*
D2*
X6857Y47030D1*
D2*
X6885Y47058D1*
D2*
X6943Y47087D1*
D2*
X7058D1*
D2*
X7115Y47058D1*
D2*
X7143Y47030D1*
D2*
X7172Y46972D1*
D2*
Y46915D1*
D2*
X7143Y46857D1*
D2*
X7086Y46772D1*
D2*
X6799Y46485D1*
D2*
X7201D1*
X7559Y47087D2*
X7472Y47058D1*
D2*
X7415Y46972D1*
D2*
X7386Y46829D1*
D2*
Y46743D1*
D2*
X7415Y46599D1*
D2*
X7472Y46513D1*
D2*
X7559Y46485D1*
D2*
X7616D1*
D2*
X7702Y46513D1*
D2*
X7759Y46599D1*
D2*
X7788Y46743D1*
D2*
Y46829D1*
D2*
X7759Y46972D1*
D2*
X7702Y47058D1*
D2*
X7616Y47087D1*
D2*
X7559D1*
X7759Y46972D2*
X7415Y46599D1*
X6341Y42300D2*
X6599D1*
D2*
X6685Y42330D1*
D2*
X6714Y42358D1*
D2*
X6743Y42415D1*
D2*
Y42473D1*
D2*
X6714Y42530D1*
D2*
X6685Y42559D1*
D2*
X6599Y42588D1*
D2*
X6341D1*
D2*
Y41985D1*
X6542Y42300D2*
X6743Y41985D1*
X6957Y42444D2*
Y42472D1*
D2*
X6986Y42530D1*
D2*
X7014Y42558D1*
D2*
X7072Y42587D1*
D2*
X7187D1*
D2*
X7244Y42558D1*
D2*
X7272Y42530D1*
D2*
X7301Y42472D1*
D2*
Y42415D1*
D2*
X7272Y42357D1*
D2*
X7215Y42272D1*
D2*
X6928Y41985D1*
D2*
X7330D1*
X7515Y42472D2*
X7573Y42501D1*
D2*
X7659Y42587D1*
D2*
Y41985D1*
X6212Y41800D2*
X6470D1*
D2*
X6556Y41830D1*
D2*
X6585Y41858D1*
D2*
X6614Y41915D1*
D2*
Y41973D1*
D2*
X6585Y42030D1*
D2*
X6556Y42059D1*
D2*
X6470Y42088D1*
D2*
X6212D1*
D2*
Y41485D1*
X6413Y41800D2*
X6614Y41485D1*
X6828Y41944D2*
Y41972D1*
D2*
X6857Y42030D1*
D2*
X6885Y42058D1*
D2*
X6943Y42087D1*
D2*
X7058D1*
D2*
X7115Y42058D1*
D2*
X7143Y42030D1*
D2*
X7172Y41972D1*
D2*
Y41915D1*
D2*
X7143Y41857D1*
D2*
X7086Y41772D1*
D2*
X6799Y41485D1*
D2*
X7201D1*
X7415Y41944D2*
Y41972D1*
D2*
X7444Y42030D1*
D2*
X7472Y42058D1*
D2*
X7530Y42087D1*
D2*
X7645D1*
D2*
X7702Y42058D1*
D2*
X7730Y42030D1*
D2*
X7760Y41972D1*
D2*
Y41915D1*
D2*
X7730Y41857D1*
D2*
X7673Y41772D1*
D2*
X7386Y41485D1*
D2*
X7788D1*
X16212Y24550D2*
X16470D1*
D2*
X16556Y24580D1*
D2*
X16585Y24608D1*
D2*
X16614Y24665D1*
D2*
Y24723D1*
D2*
X16585Y24780D1*
D2*
X16556Y24809D1*
D2*
X16470Y24838D1*
D2*
X16212D1*
D2*
Y24235D1*
X16413Y24550D2*
X16614Y24235D1*
X16828Y24694D2*
Y24722D1*
D2*
X16857Y24780D1*
D2*
X16885Y24808D1*
D2*
X16943Y24837D1*
D2*
X17058D1*
D2*
X17115Y24808D1*
D2*
X17143Y24780D1*
D2*
X17172Y24722D1*
D2*
Y24665D1*
D2*
X17143Y24607D1*
D2*
X17086Y24522D1*
D2*
X16799Y24235D1*
D2*
X17201D1*
X17730Y24837D2*
X17444D1*
D2*
X17415Y24579D1*
D2*
X17444Y24607D1*
D2*
X17530Y24637D1*
D2*
X17616D1*
D2*
X17702Y24607D1*
D2*
X17760Y24550D1*
D2*
X17788Y24464D1*
D2*
Y24407D1*
D2*
X17760Y24321D1*
D2*
X17702Y24263D1*
D2*
X17616Y24235D1*
D2*
X17530D1*
D2*
X17444Y24263D1*
D2*
X17415Y24292D1*
D2*
X17386Y24349D1*
X16226Y23550D2*
X16484D1*
D2*
X16571Y23580D1*
D2*
X16600Y23608D1*
D2*
X16628Y23665D1*
D2*
Y23723D1*
D2*
X16600Y23780D1*
D2*
X16571Y23809D1*
D2*
X16484Y23838D1*
D2*
X16226D1*
D2*
Y23235D1*
X16427Y23550D2*
X16628Y23235D1*
X16843Y23694D2*
Y23722D1*
D2*
X16871Y23780D1*
D2*
X16900Y23808D1*
D2*
X16958Y23837D1*
D2*
X17072D1*
D2*
X17129Y23808D1*
D2*
X17158Y23780D1*
D2*
X17187Y23722D1*
D2*
Y23665D1*
D2*
X17158Y23607D1*
D2*
X17101Y23522D1*
D2*
X16814Y23235D1*
D2*
X17216D1*
X17745Y23751D2*
X17717Y23808D1*
D2*
X17630Y23837D1*
D2*
X17573D1*
D2*
X17487Y23808D1*
D2*
X17429Y23722D1*
D2*
X17401Y23579D1*
D2*
Y23436D1*
D2*
X17429Y23321D1*
D2*
X17487Y23263D1*
D2*
X17573Y23235D1*
D2*
X17602D1*
D2*
X17687Y23263D1*
D2*
X17745Y23321D1*
D2*
X17774Y23407D1*
D2*
Y23436D1*
D2*
X17745Y23522D1*
D2*
X17687Y23579D1*
D2*
X17602Y23607D1*
D2*
X17573D1*
D2*
X17487Y23579D1*
D2*
X17429Y23522D1*
D2*
X17401Y23436D1*
X7712Y18050D2*
X7970D1*
D2*
X8056Y18080D1*
D2*
X8085Y18108D1*
D2*
X8114Y18165D1*
D2*
Y18223D1*
D2*
X8085Y18280D1*
D2*
X8056Y18309D1*
D2*
X7970Y18338D1*
D2*
X7712D1*
D2*
Y17735D1*
X7913Y18050D2*
X8114Y17735D1*
X8328Y18194D2*
Y18222D1*
D2*
X8357Y18280D1*
D2*
X8385Y18308D1*
D2*
X8443Y18337D1*
D2*
X8558D1*
D2*
X8615Y18308D1*
D2*
X8643Y18280D1*
D2*
X8672Y18222D1*
D2*
Y18165D1*
D2*
X8643Y18107D1*
D2*
X8586Y18022D1*
D2*
X8299Y17735D1*
D2*
X8701D1*
X9001D2*
X9288Y18337D1*
D2*
X8886D1*
X8212Y30050D2*
X8470D1*
D2*
X8556Y30080D1*
D2*
X8586Y30108D1*
D2*
X8614Y30165D1*
D2*
Y30223D1*
D2*
X8586Y30280D1*
D2*
X8556Y30309D1*
D2*
X8470Y30338D1*
D2*
X8212D1*
D2*
Y29735D1*
X8413Y30050D2*
X8614Y29735D1*
X8829Y30194D2*
Y30222D1*
D2*
X8857Y30280D1*
D2*
X8886Y30308D1*
D2*
X8943Y30337D1*
D2*
X9058D1*
D2*
X9115Y30308D1*
D2*
X9144Y30280D1*
D2*
X9173Y30222D1*
D2*
Y30165D1*
D2*
X9144Y30107D1*
D2*
X9087Y30022D1*
D2*
X8799Y29735D1*
D2*
X9201D1*
X9530Y30337D2*
X9444Y30308D1*
D2*
X9415Y30251D1*
D2*
Y30194D1*
D2*
X9444Y30137D1*
D2*
X9501Y30107D1*
D2*
X9616Y30079D1*
D2*
X9702Y30050D1*
D2*
X9759Y29993D1*
D2*
X9788Y29936D1*
D2*
Y29849D1*
D2*
X9759Y29792D1*
D2*
X9731Y29763D1*
D2*
X9645Y29735D1*
D2*
X9530D1*
D2*
X9444Y29763D1*
D2*
X9415Y29792D1*
D2*
X9387Y29849D1*
D2*
Y29936D1*
D2*
X9415Y29993D1*
D2*
X9473Y30050D1*
D2*
X9558Y30079D1*
D2*
X9673Y30107D1*
D2*
X9731Y30137D1*
D2*
X9759Y30194D1*
D2*
Y30251D1*
D2*
X9731Y30308D1*
D2*
X9645Y30337D1*
D2*
X9530D1*
X19712Y27050D2*
X19970D1*
D2*
X20056Y27080D1*
D2*
X20085Y27108D1*
D2*
X20114Y27165D1*
D2*
Y27223D1*
D2*
X20085Y27280D1*
D2*
X20056Y27309D1*
D2*
X19970Y27338D1*
D2*
X19712D1*
D2*
Y26735D1*
X19913Y27050D2*
X20114Y26735D1*
X20357Y27337D2*
X20672D1*
D2*
X20500Y27107D1*
D2*
X20586D1*
D2*
X20643Y27079D1*
D2*
X20672Y27050D1*
D2*
X20701Y26964D1*
D2*
Y26907D1*
D2*
X20672Y26821D1*
D2*
X20615Y26763D1*
D2*
X20529Y26735D1*
D2*
X20442D1*
D2*
X20357Y26763D1*
D2*
X20328Y26792D1*
D2*
X20299Y26849D1*
X21230Y27337D2*
X20944D1*
D2*
X20915Y27079D1*
D2*
X20944Y27107D1*
D2*
X21030Y27137D1*
D2*
X21116D1*
D2*
X21202Y27107D1*
D2*
X21260Y27050D1*
D2*
X21288Y26964D1*
D2*
Y26907D1*
D2*
X21260Y26821D1*
D2*
X21202Y26763D1*
D2*
X21116Y26735D1*
D2*
X21030D1*
D2*
X20944Y26763D1*
D2*
X20915Y26792D1*
D2*
X20886Y26849D1*
X30726Y6550D2*
X30984D1*
D2*
X31071Y6580D1*
D2*
X31100Y6608D1*
D2*
X31128Y6665D1*
D2*
Y6723D1*
D2*
X31100Y6780D1*
D2*
X31071Y6809D1*
D2*
X30984Y6838D1*
D2*
X30726D1*
D2*
Y6235D1*
X30927Y6550D2*
X31128Y6235D1*
X31371Y6837D2*
X31686D1*
D2*
X31515Y6607D1*
D2*
X31601D1*
D2*
X31658Y6579D1*
D2*
X31686Y6550D1*
D2*
X31716Y6464D1*
D2*
Y6407D1*
D2*
X31686Y6321D1*
D2*
X31629Y6263D1*
D2*
X31543Y6235D1*
D2*
X31457D1*
D2*
X31371Y6263D1*
D2*
X31343Y6292D1*
D2*
X31314Y6349D1*
X32245Y6751D2*
X32217Y6808D1*
D2*
X32130Y6837D1*
D2*
X32073D1*
D2*
X31987Y6808D1*
D2*
X31929Y6722D1*
D2*
X31901Y6579D1*
D2*
Y6436D1*
D2*
X31929Y6321D1*
D2*
X31987Y6263D1*
D2*
X32073Y6235D1*
D2*
X32102D1*
D2*
X32187Y6263D1*
D2*
X32245Y6321D1*
D2*
X32274Y6407D1*
D2*
Y6436D1*
D2*
X32245Y6522D1*
D2*
X32187Y6579D1*
D2*
X32102Y6607D1*
D2*
X32073D1*
D2*
X31987Y6579D1*
D2*
X31929Y6522D1*
D2*
X31901Y6436D1*
X3462Y38657D2*
X3404Y38600D1*
D2*
X3376Y38513D1*
D2*
Y38399D1*
D2*
X3404Y38312D1*
D2*
X3462Y38255D1*
D2*
X3519D1*
D2*
X3577Y38284D1*
D2*
X3605Y38312D1*
D2*
X3634Y38369D1*
D2*
X3691Y38542D1*
D2*
X3720Y38600D1*
D2*
X3749Y38628D1*
D2*
X3806Y38657D1*
D2*
X3892D1*
D2*
X3949Y38600D1*
D2*
X3978Y38513D1*
D2*
Y38399D1*
D2*
X3949Y38312D1*
D2*
X3892Y38255D1*
X3376Y38842D2*
X3978Y38986D1*
D2*
X3376Y39129D1*
D2*
X3978Y39272D1*
D2*
X3376Y39416D1*
X3491Y39601D2*
X3462Y39659D1*
D2*
X3376Y39745D1*
D2*
X3978D1*
X3462Y34528D2*
X3404Y34471D1*
D2*
X3376Y34384D1*
D2*
Y34270D1*
D2*
X3404Y34183D1*
D2*
X3462Y34126D1*
D2*
X3519D1*
D2*
X3577Y34155D1*
D2*
X3605Y34183D1*
D2*
X3634Y34240D1*
D2*
X3691Y34413D1*
D2*
X3720Y34471D1*
D2*
X3749Y34499D1*
D2*
X3806Y34528D1*
D2*
X3892D1*
D2*
X3949Y34471D1*
D2*
X3978Y34384D1*
D2*
Y34270D1*
D2*
X3949Y34183D1*
D2*
X3892Y34126D1*
X3376Y34713D2*
X3978Y34857D1*
D2*
X3376Y35000D1*
D2*
X3978Y35143D1*
D2*
X3376Y35287D1*
X3519Y35502D2*
X3491D1*
D2*
X3433Y35530D1*
D2*
X3405Y35559D1*
D2*
X3376Y35616D1*
D2*
Y35731D1*
D2*
X3405Y35788D1*
D2*
X3433Y35817D1*
D2*
X3491Y35846D1*
D2*
X3548D1*
D2*
X3606Y35817D1*
D2*
X3691Y35760D1*
D2*
X3978Y35472D1*
D2*
Y35874D1*
X25696Y16634D2*
X26126D1*
D2*
X26212Y16663D1*
D2*
X26269Y16721D1*
D2*
X26299Y16807D1*
D2*
Y16864D1*
D2*
X26269Y16950D1*
D2*
X26212Y17008D1*
D2*
X26126Y17036D1*
D2*
X25696D1*
X25811Y17222D2*
X25782Y17279D1*
D2*
X25696Y17366D1*
D2*
X26299D1*
X14662Y35005D2*
X15093D1*
D2*
X15179Y35034D1*
D2*
X15236Y35092D1*
D2*
X15265Y35178D1*
D2*
Y35235D1*
D2*
X15236Y35321D1*
D2*
X15179Y35379D1*
D2*
X15093Y35407D1*
D2*
X14662D1*
X14806Y35622D2*
X14778D1*
D2*
X14720Y35650D1*
D2*
X14692Y35679D1*
D2*
X14663Y35737D1*
D2*
Y35851D1*
D2*
X14692Y35908D1*
D2*
X14720Y35937D1*
D2*
X14778Y35966D1*
D2*
X14835D1*
D2*
X14893Y35937D1*
D2*
X14978Y35880D1*
D2*
X15265Y35593D1*
D2*
Y35995D1*
X21662Y12520D2*
X22093D1*
D2*
X22179Y12548D1*
D2*
X22236Y12606D1*
D2*
X22265Y12692D1*
D2*
Y12749D1*
D2*
X22236Y12835D1*
D2*
X22179Y12893D1*
D2*
X22093Y12922D1*
D2*
X21662D1*
X21863Y13480D2*
X21950Y13451D1*
D2*
X22007Y13394D1*
D2*
X22036Y13308D1*
D2*
Y13279D1*
D2*
X22007Y13193D1*
D2*
X21950Y13136D1*
D2*
X21863Y13107D1*
D2*
X21835D1*
D2*
X21749Y13136D1*
D2*
X21692Y13193D1*
D2*
X21663Y13279D1*
D2*
Y13308D1*
D2*
X21692Y13394D1*
D2*
X21749Y13451D1*
D2*
X21863Y13480D1*
D2*
X22007D1*
D2*
X22151Y13451D1*
D2*
X22237Y13394D1*
D2*
X22265Y13308D1*
D2*
Y13251D1*
D2*
X22237Y13165D1*
D2*
X22179Y13136D1*
X27841Y29450D2*
Y29019D1*
D2*
X27869Y28933D1*
D2*
X27927Y28876D1*
D2*
X28013Y28847D1*
D2*
X28070D1*
D2*
X28157Y28876D1*
D2*
X28214Y28933D1*
D2*
X28243Y29019D1*
D2*
Y29450D1*
X28428Y29334D2*
X28486Y29363D1*
D2*
X28572Y29449D1*
D2*
Y28847D1*
X28930Y29449D2*
X28843Y29420D1*
D2*
X28786Y29334D1*
D2*
X28757Y29191D1*
D2*
Y29105D1*
D2*
X28786Y28961D1*
D2*
X28843Y28875D1*
D2*
X28930Y28847D1*
D2*
X28987D1*
D2*
X29073Y28875D1*
D2*
X29130Y28961D1*
D2*
X29159Y29105D1*
D2*
Y29191D1*
D2*
X29130Y29334D1*
D2*
X29073Y29420D1*
D2*
X28987Y29449D1*
D2*
X28930D1*
X29130Y29334D2*
X28786Y28961D1*
X9662Y38970D2*
X10093D1*
D2*
X10179Y38998D1*
D2*
X10236Y39056D1*
D2*
X10265Y39142D1*
D2*
Y39199D1*
D2*
X10236Y39286D1*
D2*
X10179Y39343D1*
D2*
X10093Y39372D1*
D2*
X9662D1*
X9778Y39557D2*
X9749Y39615D1*
D2*
X9663Y39701D1*
D2*
X10265D1*
X9778Y39886D2*
X9749Y39944D1*
D2*
X9663Y40030D1*
D2*
X10265D1*
X31341Y41949D2*
Y41518D1*
D2*
X31369Y41432D1*
D2*
X31427Y41375D1*
D2*
X31513Y41346D1*
D2*
X31570D1*
D2*
X31657Y41375D1*
D2*
X31714Y41432D1*
D2*
X31743Y41518D1*
D2*
Y41949D1*
X31928Y41833D2*
X31986Y41862D1*
D2*
X32072Y41948D1*
D2*
Y41346D1*
X32286Y41805D2*
Y41833D1*
D2*
X32315Y41891D1*
D2*
X32343Y41919D1*
D2*
X32401Y41948D1*
D2*
X32516D1*
D2*
X32573Y41919D1*
D2*
X32601Y41891D1*
D2*
X32631Y41833D1*
D2*
Y41776D1*
D2*
X32601Y41719D1*
D2*
X32544Y41633D1*
D2*
X32257Y41346D1*
D2*
X32659D1*
X26855Y44314D2*
Y43884D1*
D2*
X26884Y43798D1*
D2*
X26942Y43741D1*
D2*
X27028Y43711D1*
D2*
X27085D1*
D2*
X27171Y43741D1*
D2*
X27229Y43798D1*
D2*
X27257Y43884D1*
D2*
Y44314D1*
X27443Y44199D2*
X27500Y44228D1*
D2*
X27587Y44314D1*
D2*
Y43711D1*
X28116Y44228D2*
X28088Y44285D1*
D2*
X28001Y44314D1*
D2*
X27944D1*
D2*
X27858Y44285D1*
D2*
X27800Y44199D1*
D2*
X27772Y44056D1*
D2*
Y43912D1*
D2*
X27800Y43798D1*
D2*
X27858Y43740D1*
D2*
X27944Y43711D1*
D2*
X27973D1*
D2*
X28058Y43740D1*
D2*
X28116Y43798D1*
D2*
X28145Y43884D1*
D2*
Y43912D1*
D2*
X28116Y43999D1*
D2*
X28058Y44056D1*
D2*
X27973Y44084D1*
D2*
X27944D1*
D2*
X27858Y44056D1*
D2*
X27800Y43999D1*
D2*
X27772Y43912D1*
X31536Y47241D2*
Y46810D1*
D2*
X31564Y46724D1*
D2*
X31622Y46667D1*
D2*
X31708Y46638D1*
D2*
X31765D1*
D2*
X31851Y46667D1*
D2*
X31909Y46724D1*
D2*
X31938Y46810D1*
D2*
Y47241D1*
X32123Y47125D2*
X32181Y47155D1*
D2*
X32267Y47240D1*
D2*
Y46638D1*
X32567D2*
X32854Y47240D1*
D2*
X32452D1*
X15341Y47338D2*
Y46907D1*
D2*
X15370Y46821D1*
D2*
X15427Y46764D1*
D2*
X15514Y46735D1*
D2*
X15571D1*
D2*
X15657Y46764D1*
D2*
X15715Y46821D1*
D2*
X15743Y46907D1*
D2*
Y47338D1*
X15928Y47222D2*
X15986Y47251D1*
D2*
X16072Y47337D1*
D2*
Y46735D1*
X16401Y47337D2*
X16315Y47308D1*
D2*
X16286Y47251D1*
D2*
Y47194D1*
D2*
X16315Y47137D1*
D2*
X16372Y47107D1*
D2*
X16487Y47079D1*
D2*
X16573Y47050D1*
D2*
X16630Y46993D1*
D2*
X16659Y46936D1*
D2*
Y46849D1*
D2*
X16630Y46792D1*
D2*
X16602Y46763D1*
D2*
X16516Y46735D1*
D2*
X16401D1*
D2*
X16315Y46763D1*
D2*
X16286Y46792D1*
D2*
X16258Y46849D1*
D2*
Y46936D1*
D2*
X16286Y46993D1*
D2*
X16344Y47050D1*
D2*
X16429Y47079D1*
D2*
X16544Y47107D1*
D2*
X16602Y47137D1*
D2*
X16630Y47194D1*
D2*
Y47251D1*
D2*
X16602Y47308D1*
D2*
X16516Y47337D1*
D2*
X16401D1*
X26006Y5843D2*
Y5413D1*
D2*
X26034Y5327D1*
D2*
X26092Y5270D1*
D2*
X26178Y5240D1*
D2*
X26235D1*
D2*
X26321Y5270D1*
D2*
X26379Y5327D1*
D2*
X26408Y5413D1*
D2*
Y5843D1*
X26593Y5728D2*
X26651Y5757D1*
D2*
X26737Y5843D1*
D2*
Y5240D1*
X27296Y5642D2*
X27266Y5556D1*
D2*
X27209Y5498D1*
D2*
X27123Y5470D1*
D2*
X27095D1*
D2*
X27008Y5498D1*
D2*
X26951Y5556D1*
D2*
X26922Y5642D1*
D2*
Y5671D1*
D2*
X26951Y5757D1*
D2*
X27008Y5814D1*
D2*
X27095Y5843D1*
D2*
X27123D1*
D2*
X27209Y5814D1*
D2*
X27266Y5757D1*
D2*
X27296Y5642D1*
D2*
Y5498D1*
D2*
X27266Y5355D1*
D2*
X27209Y5269D1*
D2*
X27123Y5240D1*
D2*
X27066D1*
D2*
X26980Y5269D1*
D2*
X26951Y5327D1*
X24505Y14338D2*
X24907Y13735D1*
Y14338D2*
X24505Y13735D1*
X25150Y14337D2*
X25465D1*
D2*
X25294Y14107D1*
D2*
X25380D1*
D2*
X25437Y14079D1*
D2*
X25465Y14050D1*
D2*
X25495Y13964D1*
D2*
Y13907D1*
D2*
X25465Y13821D1*
D2*
X25408Y13763D1*
D2*
X25322Y13735D1*
D2*
X25236D1*
D2*
X25150Y13763D1*
D2*
X25122Y13792D1*
D2*
X25093Y13849D1*
X33296Y25336D2*
D167*
X33249Y25384D1*
D2*
X33177Y25408D1*
D2*
X33081D1*
D2*
X33009Y25384D1*
D2*
X32961Y25336D1*
D2*
Y25288D1*
D2*
X32986Y25240D1*
D2*
X33009Y25216D1*
D2*
X33057Y25193D1*
D2*
X33201Y25145D1*
D2*
X33249Y25121D1*
D2*
X33273Y25096D1*
D2*
X33296Y25049D1*
D2*
Y24977D1*
D2*
X33249Y24930D1*
D2*
X33177Y24905D1*
D2*
X33081D1*
D2*
X33009Y24930D1*
D2*
X32961Y24977D1*
X33451Y25408D2*
Y24905D1*
Y25145D2*
X33523Y25216D1*
D2*
X33571Y25240D1*
D2*
X33643D1*
D2*
X33690Y25216D1*
D2*
X33714Y25145D1*
D2*
Y24905D1*
X33868Y25408D2*
Y24905D1*
X34309Y25408D2*
Y24905D1*
Y25168D2*
X34262Y25216D1*
D2*
X34214Y25240D1*
D2*
X34142D1*
D2*
X34094Y25216D1*
D2*
X34046Y25168D1*
D2*
X34023Y25096D1*
D2*
Y25049D1*
D2*
X34046Y24977D1*
D2*
X34094Y24930D1*
D2*
X34142Y24905D1*
D2*
X34214D1*
D2*
X34262Y24930D1*
D2*
X34309Y24977D1*
X33320Y24788D2*
X33296Y24836D1*
D2*
X33248Y24884D1*
D2*
X33201Y24908D1*
D2*
X33105D1*
D2*
X33057Y24884D1*
D2*
X33009Y24836D1*
D2*
X32985Y24788D1*
D2*
X32961Y24716D1*
D2*
Y24596D1*
D2*
X32985Y24525D1*
D2*
X33009Y24477D1*
D2*
X33057Y24430D1*
D2*
X33105Y24405D1*
D2*
X33201D1*
D2*
X33248Y24430D1*
D2*
X33296Y24477D1*
D2*
X33320Y24525D1*
X33594Y24740D2*
X33546Y24716D1*
D2*
X33498Y24668D1*
D2*
X33474Y24596D1*
D2*
Y24549D1*
D2*
X33498Y24477D1*
D2*
X33546Y24430D1*
D2*
X33594Y24405D1*
D2*
X33666D1*
D2*
X33714Y24430D1*
D2*
X33761Y24477D1*
D2*
X33786Y24549D1*
D2*
Y24596D1*
D2*
X33761Y24668D1*
D2*
X33714Y24716D1*
D2*
X33666Y24740D1*
D2*
X33594D1*
X33940D2*
Y24405D1*
Y24645D2*
X34012Y24716D1*
D2*
X34060Y24740D1*
D2*
X34131D1*
D2*
X34179Y24716D1*
D2*
X34203Y24645D1*
D2*
Y24405D1*
X34358Y24740D2*
Y24405D1*
Y24645D2*
X34429Y24716D1*
D2*
X34477Y24740D1*
D2*
X34549D1*
D2*
X34597Y24716D1*
D2*
X34621Y24645D1*
D2*
Y24405D1*
X4717Y999D2*
D168*
X4670Y1094D1*
D2*
X4574Y1190D1*
D2*
X4479Y1238D1*
D2*
X4287D1*
D2*
X4191Y1190D1*
D2*
X4096Y1094D1*
D2*
X4048Y999D1*
D2*
X4000Y856D1*
D2*
Y616D1*
D2*
X4048Y473D1*
D2*
X4096Y377D1*
D2*
X4191Y282D1*
D2*
X4287Y233D1*
D2*
X4479D1*
D2*
X4574Y282D1*
D2*
X4670Y377D1*
D2*
X4717Y473D1*
X5600Y903D2*
Y233D1*
Y759D2*
X5505Y856D1*
D2*
X5409Y903D1*
D2*
X5266D1*
D2*
X5170Y856D1*
D2*
X5075Y759D1*
D2*
X5026Y616D1*
D2*
Y521D1*
D2*
X5075Y377D1*
D2*
X5170Y282D1*
D2*
X5266Y233D1*
D2*
X5409D1*
D2*
X5505Y282D1*
D2*
X5600Y377D1*
X5909Y1238D2*
Y233D1*
X6744Y759D2*
X6696Y856D1*
D2*
X6552Y903D1*
D2*
X6409D1*
D2*
X6265Y856D1*
D2*
X6217Y759D1*
D2*
X6265Y664D1*
D2*
X6361Y616D1*
D2*
X6600Y568D1*
D2*
X6696Y521D1*
D2*
X6744Y424D1*
D2*
Y377D1*
D2*
X6696Y282D1*
D2*
X6552Y233D1*
D2*
X6409D1*
D2*
X6265Y282D1*
D2*
X6217Y377D1*
X7291Y903D2*
X7196Y856D1*
D2*
X7100Y759D1*
D2*
X7052Y616D1*
D2*
Y521D1*
D2*
X7100Y377D1*
D2*
X7196Y282D1*
D2*
X7291Y233D1*
D2*
X7435D1*
D2*
X7531Y282D1*
D2*
X7626Y377D1*
D2*
X7675Y521D1*
D2*
Y616D1*
D2*
X7626Y759D1*
D2*
X7531Y856D1*
D2*
X7435Y903D1*
D2*
X7291D1*
X7984Y1238D2*
Y233D1*
X9313Y998D2*
Y1046D1*
D2*
X9360Y1142D1*
D2*
X9408Y1189D1*
D2*
X9504Y1237D1*
D2*
X9695D1*
D2*
X9790Y1189D1*
D2*
X9838Y1142D1*
D2*
X9887Y1046D1*
D2*
Y951D1*
D2*
X9838Y854D1*
D2*
X9743Y712D1*
D2*
X9264Y233D1*
D2*
X9934D1*
X10530Y1237D2*
X10387Y1189D1*
D2*
X10291Y1046D1*
D2*
X10243Y807D1*
D2*
Y663D1*
D2*
X10291Y424D1*
D2*
X10387Y281D1*
D2*
X10530Y233D1*
D2*
X10625D1*
D2*
X10769Y281D1*
D2*
X10864Y424D1*
D2*
X10913Y663D1*
D2*
Y807D1*
D2*
X10864Y1046D1*
D2*
X10769Y1189D1*
D2*
X10625Y1237D1*
D2*
X10530D1*
X10864Y1046D2*
X10291Y424D1*
X11222Y1046D2*
X11318Y1094D1*
D2*
X11462Y1237D1*
D2*
Y233D1*
X11770Y1046D2*
X11866Y1094D1*
D2*
X12010Y1237D1*
D2*
Y233D1*
X12415Y281D2*
X12366Y233D1*
D2*
X12319Y281D1*
D2*
X12366Y329D1*
D2*
X12415Y281D1*
D2*
Y186D1*
D2*
X12366Y90D1*
D2*
X12319Y42D1*
X13696Y759D2*
X14126D1*
D2*
X14270Y808D1*
D2*
X14318Y856D1*
D2*
X14366Y951D1*
D2*
Y1047D1*
D2*
X14318Y1142D1*
D2*
X14270Y1190D1*
D2*
X14126Y1238D1*
D2*
X13696D1*
D2*
Y233D1*
X14031Y759D2*
X14366Y233D1*
X14675Y903D2*
Y424D1*
D2*
X14722Y282D1*
D2*
X14818Y233D1*
D2*
X14962D1*
D2*
X15057Y282D1*
D2*
X15201Y424D1*
Y903D2*
Y233D1*
X15510Y903D2*
Y233D1*
Y712D2*
X15653Y856D1*
D2*
X15749Y903D1*
D2*
X15892D1*
D2*
X15988Y856D1*
D2*
X16036Y712D1*
D2*
Y233D1*
X17413Y1237D2*
X17938D1*
D2*
X17651Y854D1*
D2*
X17795D1*
D2*
X17890Y807D1*
D2*
X17938Y759D1*
D2*
X17986Y616D1*
D2*
Y521D1*
D2*
X17938Y377D1*
D2*
X17843Y281D1*
D2*
X17699Y233D1*
D2*
X17555D1*
D2*
X17413Y281D1*
D2*
X17365Y329D1*
D2*
X17316Y424D1*
X4000Y2738D2*
Y1733D1*
D2*
X4335D1*
D2*
X4479Y1782D1*
D2*
X4575Y1877D1*
D2*
X4622Y1973D1*
D2*
X4670Y2116D1*
D2*
Y2356D1*
D2*
X4622Y2499D1*
D2*
X4575Y2594D1*
D2*
X4479Y2690D1*
D2*
X4335Y2738D1*
D2*
X4000D1*
X5552Y2403D2*
Y1733D1*
Y2259D2*
X5457Y2356D1*
D2*
X5361Y2403D1*
D2*
X5219D1*
D2*
X5122Y2356D1*
D2*
X5027Y2259D1*
D2*
X4979Y2116D1*
D2*
Y2021D1*
D2*
X5027Y1877D1*
D2*
X5122Y1782D1*
D2*
X5219Y1733D1*
D2*
X5361D1*
D2*
X5457Y1782D1*
D2*
X5552Y1877D1*
X6005Y2738D2*
Y1924D1*
D2*
X6052Y1782D1*
D2*
X6149Y1733D1*
D2*
X6244D1*
X5861Y2403D2*
X6196D1*
X7126D2*
Y1733D1*
Y2259D2*
X7031Y2356D1*
D2*
X6935Y2403D1*
D2*
X6792D1*
D2*
X6696Y2356D1*
D2*
X6601Y2259D1*
D2*
X6552Y2116D1*
D2*
Y2021D1*
D2*
X6601Y1877D1*
D2*
X6696Y1782D1*
D2*
X6792Y1733D1*
D2*
X6935D1*
D2*
X7031Y1782D1*
D2*
X7126Y1877D1*
X7435Y2738D2*
Y1733D1*
X7982Y2403D2*
X7887Y2356D1*
D2*
X7791Y2259D1*
D2*
X7744Y2116D1*
D2*
Y2021D1*
D2*
X7791Y1877D1*
D2*
X7887Y1782D1*
D2*
X7982Y1733D1*
D2*
X8126D1*
D2*
X8222Y1782D1*
D2*
X8317Y1877D1*
D2*
X8366Y2021D1*
D2*
Y2116D1*
D2*
X8317Y2259D1*
D2*
X8222Y2356D1*
D2*
X8126Y2403D1*
D2*
X7982D1*
X9248Y2356D2*
Y1590D1*
D2*
X9201Y1447D1*
D2*
X9153Y1398D1*
D2*
X9057Y1351D1*
D2*
X8914D1*
D2*
X8818Y1398D1*
X9248Y2212D2*
X9153Y2307D1*
D2*
X9057Y2356D1*
D2*
X8914D1*
D2*
X8818Y2307D1*
D2*
X8722Y2212D1*
D2*
X8675Y2068D1*
D2*
Y1972D1*
D2*
X8722Y1829D1*
D2*
X8818Y1733D1*
D2*
X8914Y1686D1*
D2*
X9057D1*
D2*
X9153Y1733D1*
D2*
X9248Y1829D1*
X10131Y2356D2*
Y1590D1*
D2*
X10083Y1447D1*
D2*
X10036Y1398D1*
D2*
X9940Y1351D1*
D2*
X9796D1*
D2*
X9701Y1398D1*
X10131Y2212D2*
X10036Y2307D1*
D2*
X9940Y2356D1*
D2*
X9796D1*
D2*
X9701Y2307D1*
D2*
X9605Y2212D1*
D2*
X9557Y2068D1*
D2*
Y1972D1*
D2*
X9605Y1829D1*
D2*
X9701Y1733D1*
D2*
X9796Y1686D1*
D2*
X9940D1*
D2*
X10036Y1733D1*
D2*
X10131Y1829D1*
X10440Y2116D2*
X11013D1*
D2*
Y2212D1*
D2*
X10966Y2308D1*
D2*
X10918Y2356D1*
D2*
X10822Y2403D1*
D2*
X10679D1*
D2*
X10583Y2356D1*
D2*
X10487Y2259D1*
D2*
X10440Y2116D1*
D2*
Y2021D1*
D2*
X10487Y1877D1*
D2*
X10583Y1782D1*
D2*
X10679Y1733D1*
D2*
X10822D1*
D2*
X10918Y1782D1*
D2*
X11013Y1877D1*
X11322Y2403D2*
Y1733D1*
Y2116D2*
X11371Y2259D1*
D2*
X11466Y2356D1*
D2*
X11562Y2403D1*
D2*
X11706D1*
X12987Y2546D2*
X13083Y2594D1*
D2*
X13226Y2737D1*
D2*
Y1733D1*
X13583Y1829D2*
X13535Y1781D1*
D2*
X13583Y1733D1*
D2*
X13631Y1781D1*
D2*
X13583Y1829D1*
X13989Y2498D2*
Y2546D1*
D2*
X14036Y2642D1*
D2*
X14084Y2689D1*
D2*
X14180Y2737D1*
D2*
X14371D1*
D2*
X14466Y2689D1*
D2*
X14514Y2642D1*
D2*
X14563Y2546D1*
D2*
Y2451D1*
D2*
X14514Y2354D1*
D2*
X14419Y2212D1*
D2*
X13940Y1733D1*
D2*
X14610D1*
X26500Y712D2*
X26931D1*
D2*
X27074Y759D1*
D2*
X27122Y808D1*
D2*
X27170Y903D1*
D2*
Y1047D1*
D2*
X27122Y1142D1*
D2*
X27074Y1190D1*
D2*
X26931Y1238D1*
D2*
X26500D1*
D2*
Y233D1*
X27479Y1238D2*
Y233D1*
Y759D2*
X27575Y856D1*
D2*
X27670Y903D1*
D2*
X27814D1*
D2*
X27909Y856D1*
D2*
X28005Y759D1*
D2*
X28052Y616D1*
D2*
Y521D1*
D2*
X28005Y377D1*
D2*
X27909Y282D1*
D2*
X27814Y233D1*
D2*
X27670D1*
D2*
X27575Y282D1*
D2*
X27479Y377D1*
X28983Y1238D2*
X28361D1*
D2*
Y233D1*
Y759D2*
X28744D1*
X20170Y2594D2*
X20075Y2690D1*
D2*
X19931Y2738D1*
D2*
X19740D1*
D2*
X19596Y2690D1*
D2*
X19500Y2594D1*
D2*
Y2499D1*
D2*
X19549Y2403D1*
D2*
X19596Y2356D1*
D2*
X19691Y2308D1*
D2*
X19979Y2212D1*
D2*
X20075Y2164D1*
D2*
X20122Y2116D1*
D2*
X20170Y2021D1*
D2*
Y1877D1*
D2*
X20075Y1782D1*
D2*
X19931Y1733D1*
D2*
X19740D1*
D2*
X19596Y1782D1*
D2*
X19500Y1877D1*
X20479Y2116D2*
X21052D1*
D2*
Y2212D1*
D2*
X21005Y2308D1*
D2*
X20957Y2356D1*
D2*
X20861Y2403D1*
D2*
X20717D1*
D2*
X20622Y2356D1*
D2*
X20526Y2259D1*
D2*
X20479Y2116D1*
D2*
Y2021D1*
D2*
X20526Y1877D1*
D2*
X20622Y1782D1*
D2*
X20717Y1733D1*
D2*
X20861D1*
D2*
X20957Y1782D1*
D2*
X21052Y1877D1*
X21361Y2403D2*
Y1733D1*
Y2116D2*
X21410Y2259D1*
D2*
X21505Y2356D1*
D2*
X21601Y2403D1*
D2*
X21745D1*
X22053Y2738D2*
X22101Y2690D1*
D2*
X22150Y2738D1*
D2*
X22101Y2787D1*
D2*
X22053Y2738D1*
X22101Y2403D2*
Y1733D1*
X23032Y2403D2*
Y1733D1*
Y2259D2*
X22937Y2356D1*
D2*
X22841Y2403D1*
D2*
X22698D1*
D2*
X22602Y2356D1*
D2*
X22507Y2259D1*
D2*
X22458Y2116D1*
D2*
Y2021D1*
D2*
X22507Y1877D1*
D2*
X22602Y1782D1*
D2*
X22698Y1733D1*
D2*
X22841D1*
D2*
X22937Y1782D1*
D2*
X23032Y1877D1*
X23341Y2738D2*
Y1733D1*
X23650D2*
X24320Y2737D1*
X24628Y2738D2*
Y1733D1*
X25511Y2738D2*
Y1733D1*
Y2259D2*
X25416Y2356D1*
D2*
X25320Y2403D1*
D2*
X25176D1*
D2*
X25081Y2356D1*
D2*
X24985Y2259D1*
D2*
X24937Y2116D1*
D2*
Y2021D1*
D2*
X24985Y1877D1*
D2*
X25081Y1782D1*
D2*
X25176Y1733D1*
D2*
X25320D1*
D2*
X25416Y1782D1*
D2*
X25511Y1877D1*
X20266Y233D2*
X19882Y1238D1*
D2*
X19500Y233D1*
X19644Y568D2*
X20122D1*
X21101Y759D2*
X21053Y856D1*
D2*
X20910Y903D1*
D2*
X20766D1*
D2*
X20622Y856D1*
D2*
X20575Y759D1*
D2*
X20622Y664D1*
D2*
X20719Y616D1*
D2*
X20957Y568D1*
D2*
X21053Y521D1*
D2*
X21101Y424D1*
D2*
Y377D1*
D2*
X21053Y282D1*
D2*
X20910Y233D1*
D2*
X20766D1*
D2*
X20622Y282D1*
D2*
X20575Y377D1*
X21410Y903D2*
Y233D1*
Y712D2*
X21553Y856D1*
D2*
X21650Y903D1*
D2*
X21792D1*
D2*
X21888Y856D1*
D2*
X21936Y712D1*
D2*
Y233D1*
Y712D2*
X22080Y856D1*
D2*
X22176Y903D1*
D2*
X22318D1*
D2*
X22415Y856D1*
D2*
X22463Y712D1*
D2*
Y233D1*
X3969Y49374D2*
D166*
Y48771D1*
D2*
X4170D1*
D2*
X4256Y48800D1*
D2*
X4314Y48857D1*
D2*
X4343Y48915D1*
D2*
X4371Y49000D1*
D2*
Y49144D1*
D2*
X4343Y49230D1*
D2*
X4314Y49287D1*
D2*
X4256Y49345D1*
D2*
X4170Y49374D1*
D2*
X3969D1*
X4901Y49173D2*
Y48771D1*
Y49087D2*
X4843Y49144D1*
D2*
X4786Y49173D1*
D2*
X4700D1*
D2*
X4643Y49144D1*
D2*
X4585Y49087D1*
D2*
X4556Y49000D1*
D2*
Y48943D1*
D2*
X4585Y48857D1*
D2*
X4643Y48800D1*
D2*
X4700Y48771D1*
D2*
X4786D1*
D2*
X4843Y48800D1*
D2*
X4901Y48857D1*
X5172Y49374D2*
Y48886D1*
D2*
X5201Y48800D1*
D2*
X5258Y48771D1*
D2*
X5315D1*
X5086Y49173D2*
X5287D1*
X5845D2*
Y48771D1*
Y49087D2*
X5788Y49144D1*
D2*
X5730Y49173D1*
D2*
X5644D1*
D2*
X5587Y49144D1*
D2*
X5530Y49087D1*
D2*
X5501Y49000D1*
D2*
Y48943D1*
D2*
X5530Y48857D1*
D2*
X5587Y48800D1*
D2*
X5644Y48771D1*
D2*
X5730D1*
D2*
X5788Y48800D1*
D2*
X5845Y48857D1*
X6030Y49374D2*
Y48771D1*
X6359Y49173D2*
X6302Y49144D1*
D2*
X6244Y49087D1*
D2*
X6215Y49000D1*
D2*
Y48943D1*
D2*
X6244Y48857D1*
D2*
X6302Y48800D1*
D2*
X6359Y48771D1*
D2*
X6445D1*
D2*
X6502Y48800D1*
D2*
X6560Y48857D1*
D2*
X6589Y48943D1*
D2*
Y49000D1*
D2*
X6560Y49087D1*
D2*
X6502Y49144D1*
D2*
X6445Y49173D1*
D2*
X6359D1*
X7118Y49144D2*
Y48685D1*
D2*
X7090Y48599D1*
D2*
X7061Y48570D1*
D2*
X7003Y48541D1*
D2*
X6917D1*
D2*
X6860Y48570D1*
X7118Y49058D2*
X7061Y49115D1*
D2*
X7003Y49144D1*
D2*
X6917D1*
D2*
X6860Y49115D1*
D2*
X6803Y49058D1*
D2*
X6774Y48972D1*
D2*
Y48914D1*
D2*
X6803Y48829D1*
D2*
X6860Y48771D1*
D2*
X6917Y48742D1*
D2*
X7003D1*
D2*
X7061Y48771D1*
D2*
X7118Y48829D1*
X7648Y49144D2*
Y48685D1*
D2*
X7619Y48599D1*
D2*
X7591Y48570D1*
D2*
X7533Y48541D1*
D2*
X7447D1*
D2*
X7390Y48570D1*
X7648Y49058D2*
X7591Y49115D1*
D2*
X7533Y49144D1*
D2*
X7447D1*
D2*
X7390Y49115D1*
D2*
X7332Y49058D1*
D2*
X7303Y48972D1*
D2*
Y48914D1*
D2*
X7332Y48829D1*
D2*
X7390Y48771D1*
D2*
X7447Y48742D1*
D2*
X7533D1*
D2*
X7591Y48771D1*
D2*
X7648Y48829D1*
X7833Y49000D2*
X8177D1*
D2*
Y49058D1*
D2*
X8149Y49116D1*
D2*
X8120Y49144D1*
D2*
X8062Y49173D1*
D2*
X7976D1*
D2*
X7919Y49144D1*
D2*
X7861Y49087D1*
D2*
X7833Y49000D1*
D2*
Y48943D1*
D2*
X7861Y48857D1*
D2*
X7919Y48800D1*
D2*
X7976Y48771D1*
D2*
X8062D1*
D2*
X8120Y48800D1*
D2*
X8177Y48857D1*
X8362Y49173D2*
Y48771D1*
Y49000D2*
X8392Y49087D1*
D2*
X8449Y49144D1*
D2*
X8506Y49173D1*
D2*
X8593D1*
X9361Y49258D2*
X9419Y49287D1*
D2*
X9505Y49373D1*
D2*
Y48771D1*
X9719Y48829D2*
X9690Y48799D1*
D2*
X9719Y48771D1*
D2*
X9748Y48799D1*
D2*
X9719Y48829D1*
X9962Y49230D2*
Y49258D1*
D2*
X9991Y49316D1*
D2*
X10019Y49345D1*
D2*
X10077Y49373D1*
D2*
X10192D1*
D2*
X10249Y49345D1*
D2*
X10277Y49316D1*
D2*
X10307Y49258D1*
D2*
Y49201D1*
D2*
X10277Y49144D1*
D2*
X10220Y49058D1*
D2*
X9933Y48771D1*
D2*
X10335D1*
X28129Y22408D2*
D167*
Y21905D1*
X27961Y22408D2*
X28296D1*
X28451Y22096D2*
X28738D1*
D2*
Y22145D1*
D2*
X28714Y22193D1*
D2*
X28690Y22216D1*
D2*
X28642Y22240D1*
D2*
X28570D1*
D2*
X28523Y22216D1*
D2*
X28474Y22168D1*
D2*
X28451Y22096D1*
D2*
Y22049D1*
D2*
X28474Y21977D1*
D2*
X28523Y21930D1*
D2*
X28570Y21905D1*
D2*
X28642D1*
D2*
X28690Y21930D1*
D2*
X28738Y21977D1*
X28892Y22240D2*
Y21905D1*
Y22096D2*
X28916Y22168D1*
D2*
X28964Y22216D1*
D2*
X29012Y22240D1*
D2*
X29084D1*
X29238D2*
Y21905D1*
Y22145D2*
X29310Y22216D1*
D2*
X29358Y22240D1*
D2*
X29429D1*
D2*
X29477Y22216D1*
D2*
X29501Y22145D1*
D2*
Y21905D1*
Y22145D2*
X29573Y22216D1*
D2*
X29621Y22240D1*
D2*
X29692D1*
D2*
X29741Y22216D1*
D2*
X29765Y22145D1*
D2*
Y21905D1*
X28320Y23038D2*
X28296Y23086D1*
D2*
X28248Y23134D1*
D2*
X28201Y23158D1*
D2*
X28105D1*
D2*
X28057Y23134D1*
D2*
X28009Y23086D1*
D2*
X27985Y23038D1*
D2*
X27961Y22966D1*
D2*
Y22846D1*
D2*
X27985Y22775D1*
D2*
X28009Y22727D1*
D2*
X28057Y22680D1*
D2*
X28105Y22655D1*
D2*
X28201D1*
D2*
X28248Y22680D1*
D2*
X28296Y22727D1*
D2*
X28320Y22775D1*
X28858Y22655D2*
X28666Y23158D1*
D2*
X28474Y22655D1*
X28546Y22823D2*
X28786D1*
X29347Y23158D2*
Y22655D1*
D2*
X29012Y23158D1*
D2*
Y22655D1*
X23711Y42158D2*
Y41655D1*
X23866Y41990D2*
Y41655D1*
Y41895D2*
X23938Y41966D1*
D2*
X23986Y41990D1*
D2*
X24057D1*
D2*
X24105Y41966D1*
D2*
X24129Y41895D1*
D2*
Y41655D1*
X24355Y42158D2*
Y41751D1*
D2*
X24379Y41680D1*
D2*
X24427Y41655D1*
D2*
X24475D1*
X24283Y41990D2*
X24451D1*
X23772Y46408D2*
X23461D1*
D2*
Y45905D1*
D2*
X23772D1*
X23461Y46168D2*
X23653D1*
X23926Y46240D2*
X24189Y45905D1*
Y46240D2*
X23926Y45905D1*
X24416Y46408D2*
Y46001D1*
D2*
X24440Y45930D1*
D2*
X24488Y45905D1*
D2*
X24535D1*
X24344Y46240D2*
X24511D1*
X23211Y47158D2*
X23403Y46655D1*
D2*
X23594Y47158D1*
X23748Y46918D2*
X23963D1*
D2*
X24035Y46943D1*
D2*
X24059Y46966D1*
D2*
X24083Y47014D1*
D2*
Y47062D1*
D2*
X24059Y47110D1*
D2*
X24035Y47134D1*
D2*
X23963Y47158D1*
D2*
X23748D1*
D2*
Y46655D1*
X23916Y46918D2*
X24083Y46655D1*
X24238Y46846D2*
X24524D1*
D2*
Y46895D1*
D2*
X24501Y46943D1*
D2*
X24477Y46966D1*
D2*
X24429Y46990D1*
D2*
X24357D1*
D2*
X24309Y46966D1*
D2*
X24261Y46918D1*
D2*
X24238Y46846D1*
D2*
Y46799D1*
D2*
X24261Y46727D1*
D2*
X24309Y46680D1*
D2*
X24357Y46655D1*
D2*
X24429D1*
D2*
X24477Y46680D1*
D2*
X24524Y46727D1*
X24966Y46966D2*
Y46583D1*
D2*
X24942Y46512D1*
D2*
X24918Y46488D1*
D2*
X24870Y46464D1*
D2*
X24798D1*
D2*
X24751Y46488D1*
X24966Y46895D2*
X24918Y46942D1*
D2*
X24870Y46966D1*
D2*
X24798D1*
D2*
X24751Y46942D1*
D2*
X24703Y46895D1*
D2*
X24679Y46823D1*
D2*
Y46775D1*
D2*
X24703Y46703D1*
D2*
X24751Y46655D1*
D2*
X24798Y46631D1*
D2*
X24870D1*
D2*
X24918Y46655D1*
D2*
X24966Y46703D1*
X11796Y22086D2*
X11749Y22134D1*
D2*
X11677Y22158D1*
D2*
X11581D1*
D2*
X11509Y22134D1*
D2*
X11461Y22086D1*
D2*
Y22038D1*
D2*
X11486Y21990D1*
D2*
X11509Y21966D1*
D2*
X11557Y21943D1*
D2*
X11701Y21895D1*
D2*
X11749Y21871D1*
D2*
X11773Y21846D1*
D2*
X11796Y21799D1*
D2*
Y21727D1*
D2*
X11749Y21680D1*
D2*
X11677Y21655D1*
D2*
X11581D1*
D2*
X11509Y21680D1*
D2*
X11461Y21727D1*
X11951Y21846D2*
X12238D1*
D2*
Y21895D1*
D2*
X12214Y21943D1*
D2*
X12190Y21966D1*
D2*
X12142Y21990D1*
D2*
X12070D1*
D2*
X12023Y21966D1*
D2*
X11974Y21918D1*
D2*
X11951Y21846D1*
D2*
Y21799D1*
D2*
X11974Y21727D1*
D2*
X12023Y21680D1*
D2*
X12070Y21655D1*
D2*
X12142D1*
D2*
X12190Y21680D1*
D2*
X12238Y21727D1*
X12392Y21990D2*
Y21655D1*
Y21846D2*
X12416Y21918D1*
D2*
X12464Y21966D1*
D2*
X12512Y21990D1*
D2*
X12584D1*
X11772Y21158D2*
X11461D1*
D2*
Y20655D1*
D2*
X11772D1*
X11461Y20918D2*
X11653D1*
X11926Y20990D2*
Y20655D1*
Y20895D2*
X11998Y20966D1*
D2*
X12046Y20990D1*
D2*
X12118D1*
D2*
X12166Y20966D1*
D2*
X12189Y20895D1*
D2*
Y20655D1*
X12631Y20990D2*
Y20655D1*
Y20918D2*
X12583Y20966D1*
D2*
X12535Y20990D1*
D2*
X12464D1*
D2*
X12416Y20966D1*
D2*
X12368Y20918D1*
D2*
X12344Y20846D1*
D2*
Y20799D1*
D2*
X12368Y20727D1*
D2*
X12416Y20680D1*
D2*
X12464Y20655D1*
D2*
X12535D1*
D2*
X12583Y20680D1*
D2*
X12631Y20727D1*
X11461Y17158D2*
Y16655D1*
D2*
X11629D1*
D2*
X11701Y16680D1*
D2*
X11749Y16727D1*
D2*
X11773Y16775D1*
D2*
X11796Y16846D1*
D2*
Y16966D1*
D2*
X11773Y17038D1*
D2*
X11749Y17086D1*
D2*
X11701Y17134D1*
D2*
X11629Y17158D1*
D2*
X11461D1*
X11951D2*
X11974Y17134D1*
D2*
X11999Y17158D1*
D2*
X11974Y17182D1*
D2*
X11951Y17158D1*
X11974Y16990D2*
Y16655D1*
X12416Y16918D2*
X12393Y16966D1*
D2*
X12321Y16990D1*
D2*
X12249D1*
D2*
X12177Y16966D1*
D2*
X12153Y16918D1*
D2*
X12177Y16871D1*
D2*
X12225Y16846D1*
D2*
X12344Y16823D1*
D2*
X12393Y16799D1*
D2*
X12416Y16751D1*
D2*
Y16727D1*
D2*
X12393Y16680D1*
D2*
X12321Y16655D1*
D2*
X12249D1*
D2*
X12177Y16680D1*
D2*
X12153Y16727D1*
X4400Y48230D2*
D166*
X4371Y48287D1*
D2*
X4313Y48345D1*
D2*
X4256Y48374D1*
D2*
X4142D1*
D2*
X4084Y48345D1*
D2*
X4027Y48287D1*
D2*
X3998Y48230D1*
D2*
X3969Y48144D1*
D2*
Y48000D1*
D2*
X3998Y47915D1*
D2*
X4027Y47857D1*
D2*
X4084Y47800D1*
D2*
X4142Y47771D1*
D2*
X4256D1*
D2*
X4313Y47800D1*
D2*
X4371Y47857D1*
D2*
X4400Y47915D1*
X4929Y48173D2*
Y47771D1*
Y48087D2*
X4872Y48144D1*
D2*
X4814Y48173D1*
D2*
X4729D1*
D2*
X4671Y48144D1*
D2*
X4614Y48087D1*
D2*
X4585Y48000D1*
D2*
Y47943D1*
D2*
X4614Y47857D1*
D2*
X4671Y47800D1*
D2*
X4729Y47771D1*
D2*
X4814D1*
D2*
X4872Y47800D1*
D2*
X4929Y47857D1*
X5114Y48374D2*
Y47771D1*
X5615Y48087D2*
X5587Y48144D1*
D2*
X5501Y48173D1*
D2*
X5414D1*
D2*
X5328Y48144D1*
D2*
X5300Y48087D1*
D2*
X5328Y48029D1*
D2*
X5386Y48000D1*
D2*
X5529Y47972D1*
D2*
X5587Y47943D1*
D2*
X5615Y47886D1*
D2*
Y47857D1*
D2*
X5587Y47800D1*
D2*
X5501Y47771D1*
D2*
X5414D1*
D2*
X5328Y47800D1*
D2*
X5300Y47857D1*
X5944Y48173D2*
X5887Y48144D1*
D2*
X5829Y48087D1*
D2*
X5801Y48000D1*
D2*
Y47943D1*
D2*
X5829Y47857D1*
D2*
X5887Y47800D1*
D2*
X5944Y47771D1*
D2*
X6030D1*
D2*
X6088Y47800D1*
D2*
X6145Y47857D1*
D2*
X6174Y47943D1*
D2*
Y48000D1*
D2*
X6145Y48087D1*
D2*
X6088Y48144D1*
D2*
X6030Y48173D1*
D2*
X5944D1*
X6359Y48374D2*
Y47771D1*
X7128Y48072D2*
X7459D1*
X8228Y48374D2*
Y47771D1*
D2*
X8429D1*
D2*
X8515Y47800D1*
D2*
X8573Y47857D1*
D2*
X8601Y47915D1*
D2*
X8630Y48000D1*
D2*
Y48144D1*
D2*
X8601Y48230D1*
D2*
X8573Y48287D1*
D2*
X8515Y48345D1*
D2*
X8429Y48374D1*
D2*
X8228D1*
X9159Y48173D2*
Y47771D1*
Y48087D2*
X9102Y48144D1*
D2*
X9044Y48173D1*
D2*
X8959D1*
D2*
X8901Y48144D1*
D2*
X8844Y48087D1*
D2*
X8815Y48000D1*
D2*
Y47943D1*
D2*
X8844Y47857D1*
D2*
X8901Y47800D1*
D2*
X8959Y47771D1*
D2*
X9044D1*
D2*
X9102Y47800D1*
D2*
X9159Y47857D1*
X9431Y48374D2*
Y47886D1*
D2*
X9459Y47800D1*
D2*
X9517Y47771D1*
D2*
X9574D1*
X9345Y48173D2*
X9545D1*
X10103D2*
Y47771D1*
Y48087D2*
X10046Y48144D1*
D2*
X9989Y48173D1*
D2*
X9903D1*
D2*
X9845Y48144D1*
D2*
X9788Y48087D1*
D2*
X9759Y48000D1*
D2*
Y47943D1*
D2*
X9788Y47857D1*
D2*
X9845Y47800D1*
D2*
X9903Y47771D1*
D2*
X9989D1*
D2*
X10046Y47800D1*
D2*
X10103Y47857D1*
X11073Y48374D2*
Y47771D1*
X10872Y48374D2*
X11274D1*
X11459Y48000D2*
X11803D1*
D2*
Y48058D1*
D2*
X11775Y48116D1*
D2*
X11746Y48144D1*
D2*
X11689Y48173D1*
D2*
X11602D1*
D2*
X11545Y48144D1*
D2*
X11488Y48087D1*
D2*
X11459Y48000D1*
D2*
Y47943D1*
D2*
X11488Y47857D1*
D2*
X11545Y47800D1*
D2*
X11602Y47771D1*
D2*
X11689D1*
D2*
X11746Y47800D1*
D2*
X11803Y47857D1*
X12333Y48173D2*
Y47771D1*
Y48087D2*
X12276Y48144D1*
D2*
X12218Y48173D1*
D2*
X12133D1*
D2*
X12075Y48144D1*
D2*
X12018Y48087D1*
D2*
X11989Y48000D1*
D2*
Y47943D1*
D2*
X12018Y47857D1*
D2*
X12075Y47800D1*
D2*
X12133Y47771D1*
D2*
X12218D1*
D2*
X12276Y47800D1*
D2*
X12333Y47857D1*
X12518Y48173D2*
Y47771D1*
Y48058D2*
X12604Y48144D1*
D2*
X12662Y48173D1*
D2*
X12748D1*
D2*
X12805Y48144D1*
D2*
X12834Y48058D1*
D2*
Y47771D1*
Y48058D2*
X12920Y48144D1*
D2*
X12978Y48173D1*
D2*
X13063D1*
D2*
X13121Y48144D1*
D2*
X13150Y48058D1*
D2*
Y47771D1*
X13919Y48072D2*
X14250D1*
X15048Y48230D2*
Y48258D1*
D2*
X15076Y48316D1*
D2*
X15105Y48345D1*
D2*
X15163Y48373D1*
D2*
X15277D1*
D2*
X15334Y48345D1*
D2*
X15363Y48316D1*
D2*
X15392Y48258D1*
D2*
Y48201D1*
D2*
X15363Y48144D1*
D2*
X15306Y48058D1*
D2*
X15019Y47771D1*
D2*
X15421D1*
X15778Y48373D2*
X15692Y48345D1*
D2*
X15634Y48258D1*
D2*
X15606Y48115D1*
D2*
Y48029D1*
D2*
X15634Y47886D1*
D2*
X15692Y47799D1*
D2*
X15778Y47771D1*
D2*
X15835D1*
D2*
X15922Y47799D1*
D2*
X15979Y47886D1*
D2*
X16008Y48029D1*
D2*
Y48115D1*
D2*
X15979Y48258D1*
D2*
X15922Y48345D1*
D2*
X15835Y48373D1*
D2*
X15778D1*
X15979Y48258D2*
X15634Y47886D1*
X16193Y48258D2*
X16251Y48287D1*
D2*
X16337Y48373D1*
D2*
Y47771D1*
X16522Y48258D2*
X16580Y48287D1*
D2*
X16666Y48373D1*
D2*
Y47771D1*
X19469Y49087D2*
X19727D1*
D2*
X19813Y49116D1*
D2*
X19843Y49144D1*
D2*
X19871Y49201D1*
D2*
Y49259D1*
D2*
X19843Y49316D1*
D2*
X19813Y49345D1*
D2*
X19727Y49374D1*
D2*
X19469D1*
D2*
Y48771D1*
X19670Y49087D2*
X19871Y48771D1*
X20056Y49374D2*
X20085Y49345D1*
D2*
X20114Y49374D1*
D2*
X20085Y49403D1*
D2*
X20056Y49374D1*
X20085Y49173D2*
Y48771D1*
X20644Y49087D2*
X20586Y49144D1*
D2*
X20529Y49173D1*
D2*
X20443D1*
D2*
X20386Y49144D1*
D2*
X20328Y49087D1*
D2*
X20299Y49000D1*
D2*
Y48943D1*
D2*
X20328Y48857D1*
D2*
X20386Y48800D1*
D2*
X20443Y48771D1*
D2*
X20529D1*
D2*
X20586Y48800D1*
D2*
X20644Y48857D1*
X20829Y49374D2*
Y48771D1*
Y49058D2*
X20916Y49144D1*
D2*
X20973Y49173D1*
D2*
X21060D1*
D2*
X21117Y49144D1*
D2*
X21145Y49058D1*
D2*
Y48771D1*
X21675Y49173D2*
Y48771D1*
Y49087D2*
X21618Y49144D1*
D2*
X21560Y49173D1*
D2*
X21474D1*
D2*
X21417Y49144D1*
D2*
X21360Y49087D1*
D2*
X21330Y49000D1*
D2*
Y48943D1*
D2*
X21360Y48857D1*
D2*
X21417Y48800D1*
D2*
X21474Y48771D1*
D2*
X21560D1*
D2*
X21618Y48800D1*
D2*
X21675Y48857D1*
X21860Y49173D2*
Y48771D1*
Y49000D2*
X21889Y49087D1*
D2*
X21946Y49144D1*
D2*
X22004Y49173D1*
D2*
X22090D1*
X22620Y49374D2*
Y48771D1*
Y49087D2*
X22562Y49144D1*
D2*
X22505Y49173D1*
D2*
X22419D1*
D2*
X22362Y49144D1*
D2*
X22304Y49087D1*
D2*
X22275Y49000D1*
D2*
Y48943D1*
D2*
X22304Y48857D1*
D2*
X22362Y48800D1*
D2*
X22419Y48771D1*
D2*
X22505D1*
D2*
X22562Y48800D1*
D2*
X22620Y48857D1*
X23388Y49374D2*
Y48771D1*
D2*
X23732D1*
X23918Y49374D2*
X23946Y49345D1*
D2*
X23975Y49374D1*
D2*
X23946Y49403D1*
D2*
X23918Y49374D1*
X23946Y49173D2*
Y48771D1*
X24160Y49173D2*
Y48771D1*
Y49058D2*
X24247Y49144D1*
D2*
X24304Y49173D1*
D2*
X24390D1*
D2*
X24448Y49144D1*
D2*
X24476Y49058D1*
D2*
Y48771D1*
X19900Y48230D2*
X19871Y48287D1*
D2*
X19813Y48345D1*
D2*
X19756Y48374D1*
D2*
X19642D1*
D2*
X19584Y48345D1*
D2*
X19527Y48287D1*
D2*
X19498Y48230D1*
D2*
X19469Y48144D1*
D2*
Y48000D1*
D2*
X19498Y47915D1*
D2*
X19527Y47857D1*
D2*
X19584Y47800D1*
D2*
X19642Y47771D1*
D2*
X19756D1*
D2*
X19813Y47800D1*
D2*
X19871Y47857D1*
D2*
X19900Y47915D1*
D2*
Y48000D1*
D2*
X19756D1*
X20429Y48173D2*
Y47771D1*
Y48087D2*
X20372Y48144D1*
D2*
X20314Y48173D1*
D2*
X20229D1*
D2*
X20171Y48144D1*
D2*
X20114Y48087D1*
D2*
X20085Y48000D1*
D2*
Y47943D1*
D2*
X20114Y47857D1*
D2*
X20171Y47800D1*
D2*
X20229Y47771D1*
D2*
X20314D1*
D2*
X20372Y47800D1*
D2*
X20429Y47857D1*
X20614Y48173D2*
Y47771D1*
Y48000D2*
X20644Y48087D1*
D2*
X20701Y48144D1*
D2*
X20758Y48173D1*
D2*
X20844D1*
X21059D2*
X21231Y47771D1*
D2*
X21174Y47656D1*
D2*
X21116Y47598D1*
D2*
X21059Y47570D1*
D2*
X21030D1*
X21403Y48173D2*
X21231Y47771D1*
X22344Y48374D2*
X22286Y48345D1*
D2*
X22229Y48287D1*
D2*
X22200Y48230D1*
D2*
X22172Y48144D1*
D2*
Y48000D1*
D2*
X22200Y47915D1*
D2*
X22229Y47857D1*
D2*
X22286Y47800D1*
D2*
X22344Y47771D1*
D2*
X22459D1*
D2*
X22516Y47800D1*
D2*
X22574Y47857D1*
D2*
X22602Y47915D1*
D2*
X22631Y48000D1*
D2*
Y48144D1*
D2*
X22602Y48230D1*
D2*
X22574Y48287D1*
D2*
X22516Y48345D1*
D2*
X22459Y48374D1*
D2*
X22344D1*
X22816Y48173D2*
Y47771D1*
Y48058D2*
X22902Y48144D1*
D2*
X22960Y48173D1*
D2*
X23045D1*
D2*
X23103Y48144D1*
D2*
X23132Y48058D1*
D2*
Y47771D1*
X23661Y48144D2*
Y47685D1*
D2*
X23633Y47599D1*
D2*
X23604Y47570D1*
D2*
X23546Y47541D1*
D2*
X23460D1*
D2*
X23403Y47570D1*
X23661Y48058D2*
X23604Y48115D1*
D2*
X23546Y48144D1*
D2*
X23460D1*
D2*
X23403Y48115D1*
D2*
X23345Y48058D1*
D2*
X23317Y47972D1*
D2*
Y47914D1*
D2*
X23345Y47829D1*
D2*
X23403Y47771D1*
D2*
X23460Y47742D1*
D2*
X23546D1*
D2*
X23604Y47771D1*
D2*
X23661Y47829D1*
X22961Y4145D2*
D167*
X23177D1*
D2*
X23248Y4168D1*
D2*
X23273Y4193D1*
D2*
X23296Y4240D1*
D2*
Y4312D1*
D2*
X23273Y4360D1*
D2*
X23248Y4384D1*
D2*
X23177Y4408D1*
D2*
X22961D1*
D2*
Y3905D1*
X23809Y4288D2*
X23786Y4336D1*
D2*
X23738Y4384D1*
D2*
X23690Y4408D1*
D2*
X23594D1*
D2*
X23546Y4384D1*
D2*
X23499Y4336D1*
D2*
X23474Y4288D1*
D2*
X23451Y4216D1*
D2*
Y4096D1*
D2*
X23474Y4025D1*
D2*
X23499Y3977D1*
D2*
X23546Y3930D1*
D2*
X23594Y3905D1*
D2*
X23690D1*
D2*
X23738Y3930D1*
D2*
X23786Y3977D1*
D2*
X23809Y4025D1*
D2*
Y4096D1*
D2*
X23690D1*
X24346Y3905D2*
Y4408D1*
D2*
X24155Y3905D1*
D2*
X23964Y4408D1*
D2*
Y3905D1*
X28605Y4408D2*
X28557Y4384D1*
D2*
X28509Y4336D1*
D2*
X28485Y4288D1*
D2*
X28461Y4216D1*
D2*
Y4096D1*
D2*
X28485Y4025D1*
D2*
X28509Y3977D1*
D2*
X28557Y3930D1*
D2*
X28605Y3905D1*
D2*
X28701D1*
D2*
X28748Y3930D1*
D2*
X28796Y3977D1*
D2*
X28820Y4025D1*
D2*
X28844Y4096D1*
D2*
Y4216D1*
D2*
X28820Y4288D1*
D2*
X28796Y4336D1*
D2*
X28748Y4384D1*
D2*
X28701Y4408D1*
D2*
X28605D1*
X28998Y4240D2*
Y3738D1*
Y4168D2*
X29046Y4216D1*
D2*
X29094Y4240D1*
D2*
X29166D1*
D2*
X29214Y4216D1*
D2*
X29261Y4168D1*
D2*
X29286Y4096D1*
D2*
Y4048D1*
D2*
X29261Y3977D1*
D2*
X29214Y3929D1*
D2*
X29166Y3905D1*
D2*
X29094D1*
D2*
X29046Y3929D1*
D2*
X28998Y3977D1*
X29440Y4096D2*
X29727D1*
D2*
Y4145D1*
D2*
X29703Y4193D1*
D2*
X29679Y4216D1*
D2*
X29631Y4240D1*
D2*
X29559D1*
D2*
X29512Y4216D1*
D2*
X29464Y4168D1*
D2*
X29440Y4096D1*
D2*
Y4049D1*
D2*
X29464Y3977D1*
D2*
X29512Y3930D1*
D2*
X29559Y3905D1*
D2*
X29631D1*
D2*
X29679Y3930D1*
D2*
X29727Y3977D1*
X29881Y4240D2*
Y3905D1*
Y4096D2*
X29906Y4168D1*
D2*
X29953Y4216D1*
D2*
X30001Y4240D1*
D2*
X30073D1*
X26993Y42723D2*
D169*
Y43165D1*
X26609Y44957D2*
X27298D1*
X26954Y44613D2*
Y45302D1*
M02*
