M48
INCH
T01C0.0191
T02C0.0276
T03C0.0315
T04C0.0354
T05C0.038
T06C0.0394
T07C0.0429
T08C0.0512
T09C0.0591
T10C0.063
T11C0.0906
T12C0.0984
T13C0.1181
T14C0.128
T15C0.1283
T16C0.13
%
T01
X+019000Y+022250
X+020375Y+022750
X+020375Y+023250
X+020375Y+021250
X+019000Y+020750
X+019250Y+020250
X+019250Y+019750
X+018250Y+020000
X+017750Y+020000
X+017250Y+020000
X+016000Y+021250
X+016000Y+023000
X+017750Y+023250
X+018500Y+024000
X+020500Y+025750
X+019500Y+027000
X+019500Y+027750
X+020750Y+028500
X+021250Y+028500
X+022000Y+028500
X+022250Y+027500
X+022250Y+027000
X+024500Y+027500
X+026500Y+027500
X+028500Y+027000
X+023000Y+022250
X+021750Y+021750
X+016750Y+018250
X+016250Y+017750
X+015750Y+018250
X+014000Y+019000
X+012750Y+019750
X+011750Y+020500
X+011750Y+021000
X+012000Y+022000
X+012750Y+021500
X+012750Y+022500
X+011750Y+023000
X+011750Y+023500
X+011500Y+024500
X+008750Y+023500
X+007755Y+022750
X+006750Y+021250
X+005000Y+024000
X+003000Y+021000
X+001000Y+018067
X+001000Y+016000
X+003000Y+014000
X+005000Y+015000
X+006000Y+015000
X+007500Y+017000
X+011500Y+017000
X+011500Y+016000
X+012500Y+016500
X+011500Y+018000
X+011500Y+019500
X+009500Y+013000
X+010500Y+012000
X+010500Y+009000
X+015250Y+007000
X+015500Y+013000
X+022000Y+012000
X+024500Y+010500
X+015000Y+025500
X+014165Y+027500
X+013500Y+030500
X+016000Y+031000
X+016000Y+034000
X+014000Y+034500
X+009500Y+034500
X+008500Y+033750
X+007500Y+034500
X+008500Y+032000
X+011000Y+029000
X+010500Y+027500
X+019000Y+030500
X+019500Y+030500
X+019500Y+034000
X+005500Y+037000
X+001000Y+028000
X+001000Y+026000
X+005500Y+011500
X+033500Y+040500
T02
X+025886Y+042996
X+025886Y+045004
X+029114Y+045004
X+029114Y+042996
T03
X+028370Y+024016
X+028370Y+025000
X+028370Y+025984
X+029630Y+025984
X+029630Y+025000
X+029630Y+024016
X+024630Y+043016
X+024630Y+044000
X+024630Y+044984
X+023370Y+044984
X+023370Y+044000
X+023370Y+043016
X+001800Y+040181
X+001800Y+039394
X+001800Y+038606
X+001800Y+037819
X+001800Y+036181
X+001800Y+035394
X+001800Y+034606
X+001800Y+033819
T04
X+001875Y+029866
X+001875Y+028134
X+001875Y+022866
X+001875Y+021134
X+017000Y+022000
X+026000Y+032500
X+026000Y+033500
X+026000Y+034500
X+026000Y+035500
X+029000Y+035500
X+029000Y+034500
X+029000Y+033500
X+029000Y+032500
X+031000Y+025000
X+032000Y+025000
X+020500Y+047000
X+019500Y+047000
X+018500Y+047000
X+017500Y+047000
X+003250Y+046750
X+002750Y+046250
X+003250Y+045750
X+002750Y+045250
X+002000Y+045500
X+002000Y+046500
X+002250Y+043750
X+002750Y+043250
X+002250Y+042750
X+001750Y+043250
X+001750Y+042250
X+002750Y+042250
X+003250Y+042750
X+003250Y+043750
T05
X+014000Y+040500
X+014000Y+045500
T06
X+017000Y+040492
X+017000Y+039508
X+017000Y+043000
X+017000Y+044000
X+017000Y+045000
X+021000Y+045000
X+021000Y+044000
X+021000Y+043000
X+021000Y+040492
X+021000Y+039508
X+025000Y+039508
X+025000Y+040492
X+023000Y+036000
X+023000Y+035000
X+023000Y+034000
X+023000Y+033000
X+023000Y+032000
X+023000Y+031000
T07
X+030711Y+020181
X+030711Y+019091
X+030711Y+018000
X+030711Y+016909
X+030711Y+015819
X+031829Y+016364
X+031829Y+017455
X+031829Y+018545
X+031829Y+019636
X+030711Y+029819
X+030711Y+030909
X+030711Y+032000
X+030711Y+033091
X+030711Y+034181
X+031829Y+033636
X+031829Y+032545
X+031829Y+031455
X+031829Y+030364
T08
X+011000Y+014000
X+011000Y+005181
X+003572Y+033425
X+000619Y+033425
X+000619Y+036575
X+000619Y+037425
X+003572Y+037425
X+003572Y+036575
X+003572Y+040575
X+000619Y+040575
T09
X+011000Y+045087
X+011000Y+040913
T10
X+033819Y+044000
T11
X+032638Y+044000
T12
X+033031Y+045772
X+033031Y+042228
T13
X+030276Y+044000
T14
X+002157Y+024500
X+002157Y+019500
T15
X+031270Y+022919
X+031270Y+027081
X+031270Y+036919
X+031270Y+013081
T16
X+002500Y+001250
X+032500Y+001250
X+032500Y+048750
X+002500Y+048750
T00
M30
