M48
INCH
T01C0.0191
T02C0.0276
T03C0.0315
T04C0.0354
T05C0.038
T06C0.0394
T07C0.0429
T08C0.0469
T09C0.0512
T10C0.0591
T11C0.063
T12C0.0906
T13C0.0984
T14C0.1181
T15C0.1283
T16C0.13
%
T01
X+010000Y+024000
X+011000Y+024000
X+010000Y+025000
X+010000Y+022000
X+010000Y+021500
X+009000Y+020500
X+006750Y+021250
X+003500Y+021000
X+004500Y+024000
X+001000Y+026000
X+001000Y+028000
X+005000Y+036000
X+010000Y+029000
X+011000Y+029500
X+013500Y+033000
X+018500Y+033500
X+019000Y+032000
X+018500Y+031500
X+018000Y+029000
X+020000Y+029000
X+020500Y+029500
X+021000Y+030000
X+021500Y+030500
X+022000Y+033000
X+021000Y+027000
X+017000Y+023500
X+015000Y+023500
X+012500Y+021500
X+014000Y+017500
X+013500Y+017000
X+016000Y+014500
X+014000Y+012000
X+014000Y+009000
X+017000Y+006500
X+017000Y+003500
X+009500Y+007000
X+010000Y+009000
X+010000Y+012000
X+009500Y+014000
X+008500Y+014000
X+009000Y+018000
X+001000Y+018000
X+001000Y+016567
X+020000Y+020500
X+020000Y+021500
X+027500Y+019500
X+027500Y+018500
X+029000Y+017500
X+029000Y+016500
X+029000Y+015500
X+029000Y+014500
X+029500Y+011000
X+029500Y+010000
X+033000Y+004000
X+028500Y+027000
X+034000Y+040500
X+015000Y+046000
T02
X+025886Y+042996
X+025886Y+045004
X+029114Y+045004
X+029114Y+042996
T03
X+001800Y+040181
X+001800Y+039394
X+001800Y+038606
X+001800Y+037819
X+001800Y+036181
X+001800Y+035394
X+001800Y+034606
X+001800Y+033819
X+011370Y+019984
X+011370Y+019000
X+011370Y+018016
X+012630Y+018016
X+012630Y+019000
X+012630Y+019984
X+028370Y+024016
X+028370Y+025000
X+028370Y+025984
X+029630Y+025984
X+029630Y+025000
X+029630Y+024016
X+027484Y+004630
X+026500Y+004630
X+025516Y+004630
X+025516Y+003370
X+026500Y+003370
X+027484Y+003370
X+024630Y+043016
X+024630Y+044000
X+024630Y+044984
X+023370Y+044984
X+023370Y+044000
X+023370Y+043016
T04
X+002000Y+045500
X+002750Y+045250
X+003250Y+045750
X+002750Y+046250
X+003250Y+046750
X+002000Y+046500
X+002250Y+043750
X+002750Y+043250
X+002250Y+042750
X+001750Y+043250
X+001750Y+042250
X+002750Y+042250
X+003250Y+042750
X+003250Y+043750
X+008500Y+044000
X+008500Y+045000
X+008500Y+046000
X+008500Y+043000
X+008500Y+042000
X+008500Y+041000
X+008500Y+040000
X+008500Y+039000
X+008500Y+038000
X+008500Y+037000
X+008500Y+036000
X+008500Y+035000
X+008500Y+034000
X+008500Y+033000
X+011500Y+033000
X+011500Y+034000
X+011500Y+035000
X+011500Y+036000
X+011500Y+037000
X+011500Y+038000
X+011500Y+039000
X+011500Y+040000
X+011500Y+041000
X+011500Y+042000
X+011500Y+043000
X+011500Y+044000
X+011500Y+045000
X+011500Y+046000
X+017500Y+047000
X+018500Y+047000
X+019500Y+047000
X+020500Y+047000
X+020500Y+025500
X+020500Y+024500
X+020500Y+023500
X+020500Y+022500
X+020500Y+019500
X+020500Y+018500
X+020500Y+017500
X+020500Y+016500
X+020500Y+015500
X+020500Y+014500
X+020500Y+013500
X+020500Y+012500
X+020500Y+011500
X+020500Y+010500
X+020500Y+009500
X+020500Y+008500
X+020500Y+007500
X+020500Y+006500
X+023500Y+006500
X+023500Y+007500
X+023500Y+008500
X+023500Y+009500
X+023500Y+010500
X+023500Y+011500
X+023500Y+012500
X+023500Y+013500
X+023500Y+014500
X+023500Y+015500
X+023500Y+016500
X+023500Y+017500
X+023500Y+018500
X+023500Y+019500
X+023500Y+022500
X+023500Y+023500
X+023500Y+024500
X+023500Y+025500
X+031000Y+025000
X+032000Y+025000
X+001875Y+022866
X+001875Y+021134
T05
X+029000Y+035500
X+029000Y+040500
T06
X+017000Y+040492
X+017000Y+039508
X+016500Y+037000
X+016500Y+036000
X+016500Y+035000
X+016500Y+034000
X+013500Y+034000
X+013500Y+035000
X+013500Y+036000
X+013500Y+037000
X+014000Y+040000
X+013000Y+040000
X+013000Y+041000
X+014000Y+041000
X+014000Y+042000
X+013000Y+042000
X+017000Y+043000
X+017000Y+044000
X+017000Y+045000
X+021000Y+045000
X+021000Y+044000
X+021000Y+043000
X+021000Y+040492
X+021000Y+039508
X+025000Y+039508
X+025000Y+040492
X+026500Y+011500
X+026500Y+010500
X+026500Y+009500
X+026500Y+008500
X+026500Y+007500
X+026500Y+006500
T07
X+030711Y+020181
X+030711Y+019091
X+030711Y+018000
X+030711Y+016909
X+030711Y+015819
X+031829Y+016364
X+031829Y+017455
X+031829Y+018545
X+031829Y+019636
X+030711Y+029819
X+030711Y+030909
X+030711Y+032000
X+030711Y+033091
X+030711Y+034181
X+031829Y+033636
X+031829Y+032545
X+031829Y+031455
X+031829Y+030364
T08
X+004602Y+006949
X+004602Y+009551
X+004602Y+014449
X+004602Y+004051
T09
X+011000Y+014000
X+011000Y+005181
X+003572Y+033425
X+000619Y+033425
X+000619Y+036575
X+000619Y+037425
X+003572Y+037425
X+003572Y+036575
X+003572Y+040575
X+000619Y+040575
T10
X+024087Y+036000
X+019913Y+036000
T11
X+033819Y+044000
T12
X+032638Y+044000
T13
X+033031Y+045772
X+033031Y+042228
T14
X+030276Y+044000
T15
X+031270Y+022919
X+031270Y+027081
X+031270Y+036919
X+031270Y+013081
T16
X+002500Y+001250
X+032500Y+001250
X+032500Y+048750
X+002500Y+048750
T00
M30
